<svg xmlns="http://www.w3.org/2000/svg" width="1000" height="241" viewBox="0 0 1000 241" shape-rendering="crispEdges"><title>Galo comendo 138 contribuições do último ano</title><style>.pula{animation:pula .3s steps(2,end) infinite}@keyframes pula{50%{transform:translateY(-2px)}}.flu{animation:flu .5s steps(2,end) infinite}@keyframes flu{50%{transform:translateY(1px)}}</style><rect width="1000" height="241" fill="#0d0b1e"/><rect x="12" y="18" width="976" height="215" fill="#f4f4f4"/><rect x="8" y="22" width="984" height="207" fill="#f4f4f4"/><rect x="12" y="22" width="976" height="207" fill="#14122b"/><rect x="18" y="28" width="964" height="195" fill="none" stroke="#29366f" stroke-width="2"/><rect x="36" y="8" width="182" height="24" fill="#14122b"/><rect x="36" y="8" width="182" height="24" fill="none" stroke="#f4f4f4" stroke-width="4"/><path fill="#feae34"  d="M52 13h6v2h-6zM50 15h2v2h-2zM58 15h2v2h-2zM50 17h2v2h-2zM50 19h2v2h-2zM50 21h2v2h-2zM50 23h2v2h-2zM58 23h2v2h-2zM52 25h6v2h-6zM64 13h6v2h-6zM62 15h2v2h-2zM70 15h2v2h-2zM62 17h2v2h-2zM70 17h2v2h-2zM62 19h2v2h-2zM70 19h2v2h-2zM62 21h2v2h-2zM70 21h2v2h-2zM62 23h2v2h-2zM70 23h2v2h-2zM64 25h6v2h-6zM74 13h2v2h-2zM82 13h2v2h-2zM74 15h2v2h-2zM82 15h2v2h-2zM74 17h4v2h-4zM82 17h2v2h-2zM74 19h2v2h-2zM78 19h2v2h-2zM82 19h2v2h-2zM74 21h2v2h-2zM80 21h4v2h-4zM74 23h2v2h-2zM82 23h2v2h-2zM74 25h2v2h-2zM82 25h2v2h-2zM86 13h10v2h-10zM90 15h2v2h-2zM90 17h2v2h-2zM90 19h2v2h-2zM90 21h2v2h-2zM90 23h2v2h-2zM90 25h2v2h-2zM98 13h8v2h-8zM98 15h2v2h-2zM106 15h2v2h-2zM98 17h2v2h-2zM106 17h2v2h-2zM98 19h8v2h-8zM98 21h2v2h-2zM102 21h2v2h-2zM98 23h2v2h-2zM104 23h2v2h-2zM98 25h2v2h-2zM106 25h2v2h-2zM112 13h6v2h-6zM114 15h2v2h-2zM114 17h2v2h-2zM114 19h2v2h-2zM114 21h2v2h-2zM114 23h2v2h-2zM112 25h6v2h-6zM122 13h8v2h-8zM122 15h2v2h-2zM130 15h2v2h-2zM122 17h2v2h-2zM130 17h2v2h-2zM122 19h8v2h-8zM122 21h2v2h-2zM130 21h2v2h-2zM122 23h2v2h-2zM130 23h2v2h-2zM122 25h8v2h-8zM134 13h2v2h-2zM142 13h2v2h-2zM134 15h2v2h-2zM142 15h2v2h-2zM134 17h2v2h-2zM142 17h2v2h-2zM134 19h2v2h-2zM142 19h2v2h-2zM134 21h2v2h-2zM142 21h2v2h-2zM134 23h2v2h-2zM142 23h2v2h-2zM136 25h6v2h-6zM148 13h6v2h-6zM150 15h2v2h-2zM150 17h2v2h-2zM150 19h2v2h-2zM150 21h2v2h-2zM150 23h2v2h-2zM148 25h6v2h-6zM160 13h6v2h-6zM158 15h2v2h-2zM166 15h2v2h-2zM158 17h2v2h-2zM158 19h2v2h-2zM158 21h2v2h-2zM158 23h2v2h-2zM166 23h2v2h-2zM160 25h6v2h-6zM172 13h6v2h-6zM170 15h2v2h-2zM178 15h2v2h-2zM170 17h2v2h-2zM178 17h2v2h-2zM170 19h2v2h-2zM178 19h2v2h-2zM170 21h2v2h-2zM178 21h2v2h-2zM170 23h2v2h-2zM178 23h2v2h-2zM172 25h6v2h-6zM182 13h10v2h-10zM182 15h2v2h-2zM182 17h2v2h-2zM182 19h8v2h-8zM182 21h2v2h-2zM182 23h2v2h-2zM182 25h10v2h-10zM196 13h8v2h-8zM194 15h2v2h-2zM194 17h2v2h-2zM196 19h6v2h-6zM202 21h2v2h-2zM202 23h2v2h-2zM194 25h8v2h-8z"/><path fill="#8b9bb4"  d="M758 50h2v2h-2zM756 52h4v2h-4zM758 54h2v2h-2zM758 56h2v2h-2zM758 58h2v2h-2zM758 60h2v2h-2zM756 62h6v2h-6zM766 50h10v2h-10zM772 52h2v2h-2zM770 54h2v2h-2zM772 56h2v2h-2zM774 58h2v2h-2zM766 60h2v2h-2zM774 60h2v2h-2zM768 62h6v2h-6zM780 50h6v2h-6zM778 52h2v2h-2zM786 52h2v2h-2zM778 54h2v2h-2zM786 54h2v2h-2zM780 56h6v2h-6zM778 58h2v2h-2zM786 58h2v2h-2zM778 60h2v2h-2zM786 60h2v2h-2zM780 62h6v2h-6zM802 50h2v2h-2zM810 50h2v2h-2zM802 52h2v2h-2zM810 52h2v2h-2zM802 54h4v2h-4zM810 54h2v2h-2zM802 56h2v2h-2zM806 56h2v2h-2zM810 56h2v2h-2zM802 58h2v2h-2zM808 58h4v2h-4zM802 60h2v2h-2zM810 60h2v2h-2zM802 62h2v2h-2zM810 62h2v2h-2zM816 50h6v2h-6zM814 52h2v2h-2zM822 52h2v2h-2zM814 54h2v2h-2zM822 54h2v2h-2zM814 56h2v2h-2zM822 56h2v2h-2zM814 58h2v2h-2zM822 58h2v2h-2zM814 60h2v2h-2zM822 60h2v2h-2zM816 62h6v2h-6zM838 50h2v2h-2zM846 50h2v2h-2zM838 52h2v2h-2zM846 52h2v2h-2zM838 54h2v2h-2zM846 54h2v2h-2zM838 56h2v2h-2zM846 56h2v2h-2zM838 58h2v2h-2zM846 58h2v2h-2zM838 60h2v2h-2zM846 60h2v2h-2zM840 62h6v2h-6zM850 50h2v2h-2zM850 52h2v2h-2zM850 54h2v2h-2zM850 56h2v2h-2zM850 58h2v2h-2zM850 60h2v2h-2zM850 62h10v2h-10zM862 50h10v2h-10zM866 52h2v2h-2zM866 54h2v2h-2zM866 56h2v2h-2zM866 58h2v2h-2zM866 60h2v2h-2zM866 62h2v2h-2zM876 50h6v2h-6zM878 52h2v2h-2zM878 54h2v2h-2zM878 56h2v2h-2zM878 58h2v2h-2zM878 60h2v2h-2zM876 62h6v2h-6zM886 50h2v2h-2zM894 50h2v2h-2zM886 52h4v2h-4zM892 52h4v2h-4zM886 54h2v2h-2zM890 54h2v2h-2zM894 54h2v2h-2zM886 56h2v2h-2zM890 56h2v2h-2zM894 56h2v2h-2zM886 58h2v2h-2zM894 58h2v2h-2zM886 60h2v2h-2zM894 60h2v2h-2zM886 62h2v2h-2zM894 62h2v2h-2zM900 50h6v2h-6zM898 52h2v2h-2zM906 52h2v2h-2zM898 54h2v2h-2zM906 54h2v2h-2zM898 56h2v2h-2zM906 56h2v2h-2zM898 58h2v2h-2zM906 58h2v2h-2zM898 60h2v2h-2zM906 60h2v2h-2zM900 62h6v2h-6zM924 50h6v2h-6zM922 52h2v2h-2zM930 52h2v2h-2zM922 54h2v2h-2zM930 54h2v2h-2zM922 56h10v2h-10zM922 58h2v2h-2zM930 58h2v2h-2zM922 60h2v2h-2zM930 60h2v2h-2zM922 62h2v2h-2zM930 62h2v2h-2zM934 50h2v2h-2zM942 50h2v2h-2zM934 52h2v2h-2zM942 52h2v2h-2zM934 54h4v2h-4zM942 54h2v2h-2zM934 56h2v2h-2zM938 56h2v2h-2zM942 56h2v2h-2zM934 58h2v2h-2zM940 58h4v2h-4zM934 60h2v2h-2zM942 60h2v2h-2zM934 62h2v2h-2zM942 62h2v2h-2zM948 50h6v2h-6zM946 52h2v2h-2zM954 52h2v2h-2zM946 54h2v2h-2zM954 54h2v2h-2zM946 56h2v2h-2zM954 56h2v2h-2zM946 58h2v2h-2zM954 58h2v2h-2zM946 60h2v2h-2zM954 60h2v2h-2zM948 62h6v2h-6z"/><rect x="51" y="88" width="14" height="14" fill="#1c2238"/><rect x="68" y="88" width="14" height="14" fill="#1c2238"/><rect x="85" y="88" width="14" height="14" fill="#1c2238"/><rect x="102" y="88" width="14" height="14" fill="#1c2238"/><rect x="119" y="88" width="14" height="14" fill="#1c2238"/><rect x="136" y="88" width="14" height="14" fill="#1c2238"/><rect x="153" y="88" width="14" height="14" fill="#1c2238"/><rect x="170" y="88" width="14" height="14" fill="#1c2238"/><rect x="187" y="88" width="14" height="14" fill="#1c2238"/><rect x="204" y="88" width="14" height="14" fill="#1c2238"/><rect x="221" y="88" width="14" height="14" fill="#1c2238"/><rect x="238" y="88" width="14" height="14" fill="#1c2238"/><rect x="255" y="88" width="14" height="14" fill="#1c2238"/><rect x="272" y="88" width="14" height="14" fill="#1c2238"/><rect x="289" y="88" width="14" height="14" fill="#1c2238"/><rect x="306" y="88" width="14" height="14" fill="#1c2238"/><rect x="323" y="88" width="14" height="14" fill="#1c2238"/><rect x="340" y="88" width="14" height="14" fill="#1c2238"/><rect x="357" y="88" width="14" height="14" fill="#1c2238"/><rect x="374" y="88" width="14" height="14" fill="#1c2238"/><rect x="391" y="88" width="14" height="14" fill="#1c2238"/><rect x="408" y="88" width="14" height="14" fill="#1c2238"/><rect x="425" y="88" width="14" height="14" fill="#1c2238"/><rect x="442" y="88" width="14" height="14" fill="#1c2238"/><rect x="459" y="88" width="14" height="14" fill="#1c2238"/><rect x="476" y="88" width="14" height="14" fill="#1c2238"/><rect x="493" y="88" width="14" height="14" fill="#1c2238"/><rect x="510" y="88" width="14" height="14" fill="#1c2238"/><rect x="527" y="88" width="14" height="14" fill="#1c2238"/><rect x="544" y="88" width="14" height="14" fill="#1c2238"/><rect x="561" y="88" width="14" height="14" fill="#1c2238"/><rect x="578" y="88" width="14" height="14" fill="#1c2238"/><rect x="595" y="88" width="14" height="14" fill="#1c2238"/><rect x="612" y="88" width="14" height="14" fill="#1c2238"/><rect x="629" y="88" width="14" height="14" fill="#1c2238"/><rect x="646" y="88" width="14" height="14" fill="#1c2238"/><rect x="663" y="88" width="14" height="14" fill="#1c2238"/><rect x="680" y="88" width="14" height="14" fill="#1c2238"/><rect x="697" y="88" width="14" height="14" fill="#1c2238"/><rect x="714" y="88" width="14" height="14" fill="#1c2238"/><rect x="731" y="88" width="14" height="14" fill="#1c2238"/><rect x="748" y="88" width="14" height="14" fill="#1c2238"/><rect x="765" y="88" width="14" height="14" fill="#1c2238"/><rect x="782" y="88" width="14" height="14" fill="#1c2238"/><rect x="799" y="88" width="14" height="14" fill="#1c2238"/><rect x="816" y="88" width="14" height="14" fill="#1c2238"/><rect x="833" y="88" width="14" height="14" fill="#1c2238"/><rect x="850" y="88" width="14" height="14" fill="#1c2238"/><rect x="867" y="88" width="14" height="14" fill="#1c2238"/><rect x="884" y="88" width="14" height="14" fill="#1c2238"/><rect x="901" y="88" width="14" height="14" fill="#1c2238"/><rect x="918" y="88" width="14" height="14" fill="#1c2238"/><rect x="935" y="88" width="14" height="14" fill="#1c2238"/><rect x="935" y="105" width="14" height="14" fill="#1c2238"/><rect x="918" y="105" width="14" height="14" fill="#1c2238"/><rect x="901" y="105" width="14" height="14" fill="#1c2238"/><rect x="884" y="105" width="14" height="14" fill="#1c2238"/><rect x="867" y="105" width="14" height="14" fill="#1c2238"/><rect x="850" y="105" width="14" height="14" fill="#1c2238"/><rect x="833" y="105" width="14" height="14" fill="#1c2238"/><rect x="816" y="105" width="14" height="14" fill="#1c2238"/><rect x="799" y="105" width="14" height="14" fill="#1c2238"/><rect x="782" y="105" width="14" height="14" fill="#1c2238"/><rect x="765" y="105" width="14" height="14" fill="#1c2238"/><rect x="748" y="105" width="14" height="14" fill="#1c2238"/><rect x="731" y="105" width="14" height="14" fill="#1c2238"/><rect x="714" y="105" width="14" height="14" fill="#1c2238"/><rect x="697" y="105" width="14" height="14" fill="#1c2238"/><rect x="680" y="105" width="14" height="14" fill="#1c2238"/><rect x="663" y="105" width="14" height="14" fill="#1c2238"/><rect x="646" y="105" width="14" height="14" fill="#1c2238"/><rect x="629" y="105" width="14" height="14" fill="#1c2238"/><rect x="612" y="105" width="14" height="14" fill="#1c2238"/><rect x="595" y="105" width="14" height="14" fill="#1c2238"/><rect x="578" y="105" width="14" height="14" fill="#1c2238"/><rect x="561" y="105" width="14" height="14" fill="#1c2238"/><rect x="544" y="105" width="14" height="14" fill="#1c2238"/><rect x="527" y="105" width="14" height="14" fill="#1c2238"/><rect x="510" y="105" width="14" height="14" fill="#1c2238"/><rect x="493" y="105" width="14" height="14" fill="#1c2238"/><rect x="476" y="105" width="14" height="14" fill="#1c2238"/><rect x="459" y="105" width="14" height="14" fill="#1c2238"/><rect x="442" y="105" width="14" height="14" fill="#1c2238"/><rect x="425" y="105" width="14" height="14" fill="#1c2238"/><rect x="408" y="105" width="14" height="14" fill="#1c2238"/><rect x="391" y="105" width="14" height="14" fill="#1c2238"/><rect x="374" y="105" width="14" height="14" fill="#1c2238"/><rect x="357" y="105" width="14" height="14" fill="#1c2238"/><rect x="340" y="105" width="14" height="14" fill="#1c2238"/><rect x="323" y="105" width="14" height="14" fill="#1c2238"/><rect x="306" y="105" width="14" height="14" fill="#1c2238"/><rect x="289" y="105" width="14" height="14" fill="#1c2238"/><rect x="272" y="105" width="14" height="14" fill="#1c2238"/><rect x="255" y="105" width="14" height="14" fill="#1c2238"/><rect x="238" y="105" width="14" height="14" fill="#1c2238"/><rect x="221" y="105" width="14" height="14" fill="#1c2238"/><rect x="204" y="105" width="14" height="14" fill="#1c2238"/><rect x="187" y="105" width="14" height="14" fill="#1c2238"/><rect x="170" y="105" width="14" height="14" fill="#1c2238"/><rect x="153" y="105" width="14" height="14" fill="#1c2238"/><rect x="136" y="105" width="14" height="14" fill="#1c2238"/><rect x="119" y="105" width="14" height="14" fill="#1c2238"/><rect x="102" y="105" width="14" height="14" fill="#1c2238"/><rect x="85" y="105" width="14" height="14" fill="#1c2238"/><rect x="68" y="105" width="14" height="14" fill="#1c2238"/><rect x="51" y="105" width="14" height="14" fill="#1c2238"/><rect x="51" y="122" width="14" height="14" fill="#1c2238"/><rect x="68" y="122" width="14" height="14" fill="#1c2238"/><rect x="85" y="122" width="14" height="14" fill="#1c2238"/><rect x="102" y="122" width="14" height="14" fill="#1c2238"/><rect x="119" y="122" width="14" height="14" fill="#1c2238"/><rect x="136" y="122" width="14" height="14" fill="#1c2238"/><rect x="153" y="122" width="14" height="14" fill="#1c2238"/><rect x="170" y="122" width="14" height="14" fill="#1c2238"/><rect x="187" y="122" width="14" height="14" fill="#1c2238"/><rect x="204" y="122" width="14" height="14" fill="#1c2238"/><rect x="221" y="122" width="14" height="14" fill="#1c2238"/><rect x="238" y="122" width="14" height="14" fill="#1c2238"/><rect x="255" y="122" width="14" height="14" fill="#1c2238"/><rect x="272" y="122" width="14" height="14" fill="#1c2238"/><rect x="289" y="122" width="14" height="14" fill="#1c2238"/><rect x="306" y="122" width="14" height="14" fill="#1c2238"/><rect x="323" y="122" width="14" height="14" fill="#1c2238"/><rect x="340" y="122" width="14" height="14" fill="#1c2238"/><rect x="357" y="122" width="14" height="14" fill="#1c2238"/><rect x="374" y="122" width="14" height="14" fill="#1c2238"/><rect x="391" y="122" width="14" height="14" fill="#1c2238"/><rect x="408" y="122" width="14" height="14" fill="#1c2238"/><rect x="425" y="122" width="14" height="14" fill="#1c2238"/><rect x="442" y="122" width="14" height="14" fill="#1c2238"/><rect x="459" y="122" width="14" height="14" fill="#1c2238"/><rect x="476" y="122" width="14" height="14" fill="#1c2238"/><rect x="493" y="122" width="14" height="14" fill="#1c2238"/><rect x="510" y="122" width="14" height="14" fill="#1c2238"/><rect x="527" y="122" width="14" height="14" fill="#1c2238"/><rect x="544" y="122" width="14" height="14" fill="#1c2238"/><rect x="561" y="122" width="14" height="14" fill="#1c2238"/><rect x="578" y="122" width="14" height="14" fill="#1c2238"/><rect x="595" y="122" width="14" height="14" fill="#1c2238"/><rect x="612" y="122" width="14" height="14" fill="#1c2238"/><rect x="629" y="122" width="14" height="14" fill="#1c2238"/><rect x="646" y="122" width="14" height="14" fill="#1c2238"/><rect x="663" y="122" width="14" height="14" fill="#1c2238"/><rect x="680" y="122" width="14" height="14" fill="#1c2238"/><rect x="697" y="122" width="14" height="14" fill="#1c2238"/><rect x="714" y="122" width="14" height="14" fill="#1c2238"/><rect x="731" y="122" width="14" height="14" fill="#1c2238"/><rect x="748" y="122" width="14" height="14" fill="#1c2238"/><rect x="765" y="122" width="14" height="14" fill="#1c2238"/><rect x="782" y="122" width="14" height="14" fill="#1c2238"/><rect x="799" y="122" width="14" height="14" fill="#1c2238"/><rect x="816" y="122" width="14" height="14" fill="#1c2238"/><rect x="833" y="122" width="14" height="14" fill="#1c2238"/><rect x="850" y="122" width="14" height="14" fill="#1c2238"/><rect x="867" y="122" width="14" height="14" fill="#1c2238"/><rect x="884" y="122" width="14" height="14" fill="#1c2238"/><rect x="901" y="122" width="14" height="14" fill="#1c2238"/><rect x="918" y="122" width="14" height="14" fill="#1c2238"/><rect x="935" y="122" width="14" height="14" fill="#1c2238"/><rect x="935" y="139" width="14" height="14" fill="#1c2238"/><rect x="918" y="139" width="14" height="14" fill="#1c2238"/><rect x="901" y="139" width="14" height="14" fill="#1c2238"/><rect x="884" y="139" width="14" height="14" fill="#1c2238"/><rect x="867" y="139" width="14" height="14" fill="#1c2238"/><rect x="850" y="139" width="14" height="14" fill="#1c2238"/><rect x="833" y="139" width="14" height="14" fill="#1c2238"/><rect x="816" y="139" width="14" height="14" fill="#1c2238"/><rect x="799" y="139" width="14" height="14" fill="#1c2238"/><rect x="782" y="139" width="14" height="14" fill="#1c2238"/><rect x="765" y="139" width="14" height="14" fill="#1c2238"/><rect x="748" y="139" width="14" height="14" fill="#1c2238"/><rect x="731" y="139" width="14" height="14" fill="#1c2238"/><rect x="714" y="139" width="14" height="14" fill="#1c2238"/><rect x="697" y="139" width="14" height="14" fill="#1c2238"/><rect x="680" y="139" width="14" height="14" fill="#1c2238"/><rect x="663" y="139" width="14" height="14" fill="#1c2238"/><rect x="646" y="139" width="14" height="14" fill="#1c2238"/><rect x="629" y="139" width="14" height="14" fill="#1c2238"/><rect x="612" y="139" width="14" height="14" fill="#1c2238"/><rect x="595" y="139" width="14" height="14" fill="#1c2238"/><rect x="578" y="139" width="14" height="14" fill="#1c2238"/><rect x="561" y="139" width="14" height="14" fill="#1c2238"/><rect x="544" y="139" width="14" height="14" fill="#1c2238"/><rect x="527" y="139" width="14" height="14" fill="#1c2238"/><rect x="510" y="139" width="14" height="14" fill="#1c2238"/><rect x="493" y="139" width="14" height="14" fill="#1c2238"/><rect x="476" y="139" width="14" height="14" fill="#1c2238"/><rect x="459" y="139" width="14" height="14" fill="#1c2238"/><rect x="442" y="139" width="14" height="14" fill="#1c2238"/><rect x="425" y="139" width="14" height="14" fill="#1c2238"/><rect x="408" y="139" width="14" height="14" fill="#1c2238"/><rect x="391" y="139" width="14" height="14" fill="#1c2238"/><rect x="374" y="139" width="14" height="14" fill="#1c2238"/><rect x="357" y="139" width="14" height="14" fill="#1c2238"/><rect x="340" y="139" width="14" height="14" fill="#1c2238"/><rect x="323" y="139" width="14" height="14" fill="#1c2238"/><rect x="306" y="139" width="14" height="14" fill="#1c2238"/><rect x="289" y="139" width="14" height="14" fill="#1c2238"/><rect x="272" y="139" width="14" height="14" fill="#1c2238"/><rect x="255" y="139" width="14" height="14" fill="#1c2238"/><rect x="238" y="139" width="14" height="14" fill="#1c2238"/><rect x="221" y="139" width="14" height="14" fill="#1c2238"/><rect x="204" y="139" width="14" height="14" fill="#1c2238"/><rect x="187" y="139" width="14" height="14" fill="#1c2238"/><rect x="170" y="139" width="14" height="14" fill="#1c2238"/><rect x="153" y="139" width="14" height="14" fill="#1c2238"/><rect x="136" y="139" width="14" height="14" fill="#1c2238"/><rect x="119" y="139" width="14" height="14" fill="#1c2238"/><rect x="102" y="139" width="14" height="14" fill="#1c2238"/><rect x="85" y="139" width="14" height="14" fill="#1c2238"/><rect x="68" y="139" width="14" height="14" fill="#1c2238"/><rect x="51" y="139" width="14" height="14" fill="#1c2238"/><rect x="51" y="156" width="14" height="14" fill="#1c2238"/><rect x="68" y="156" width="14" height="14" fill="#1c2238"/><rect x="85" y="156" width="14" height="14" fill="#1c2238"/><rect x="102" y="156" width="14" height="14" fill="#1c2238"/><rect x="119" y="156" width="14" height="14" fill="#1c2238"/><rect x="136" y="156" width="14" height="14" fill="#1c2238"/><rect x="153" y="156" width="14" height="14" fill="#1c2238"/><rect x="170" y="156" width="14" height="14" fill="#1c2238"/><rect x="187" y="156" width="14" height="14" fill="#1c2238"/><rect x="204" y="156" width="14" height="14" fill="#1c2238"/><rect x="221" y="156" width="14" height="14" fill="#1c2238"/><rect x="238" y="156" width="14" height="14" fill="#1c2238"/><rect x="255" y="156" width="14" height="14" fill="#1c2238"/><rect x="272" y="156" width="14" height="14" fill="#1c2238"/><rect x="289" y="156" width="14" height="14" fill="#1c2238"/><rect x="306" y="156" width="14" height="14" fill="#1c2238"/><rect x="323" y="156" width="14" height="14" fill="#1c2238"/><rect x="340" y="156" width="14" height="14" fill="#1c2238"/><rect x="357" y="156" width="14" height="14" fill="#1c2238"/><rect x="374" y="156" width="14" height="14" fill="#1c2238"/><rect x="391" y="156" width="14" height="14" fill="#1c2238"/><rect x="408" y="156" width="14" height="14" fill="#1c2238"/><rect x="425" y="156" width="14" height="14" fill="#1c2238"/><rect x="442" y="156" width="14" height="14" fill="#1c2238"/><rect x="459" y="156" width="14" height="14" fill="#1c2238"/><rect x="476" y="156" width="14" height="14" fill="#1c2238"/><rect x="493" y="156" width="14" height="14" fill="#1c2238"/><rect x="510" y="156" width="14" height="14" fill="#1c2238"/><rect x="527" y="156" width="14" height="14" fill="#1c2238"/><rect x="544" y="156" width="14" height="14" fill="#1c2238"/><rect x="561" y="156" width="14" height="14" fill="#1c2238"/><rect x="578" y="156" width="14" height="14" fill="#1c2238"/><rect x="595" y="156" width="14" height="14" fill="#1c2238"/><rect x="612" y="156" width="14" height="14" fill="#1c2238"/><rect x="629" y="156" width="14" height="14" fill="#1c2238"/><rect x="646" y="156" width="14" height="14" fill="#1c2238"/><rect x="663" y="156" width="14" height="14" fill="#1c2238"/><rect x="680" y="156" width="14" height="14" fill="#1c2238"/><rect x="697" y="156" width="14" height="14" fill="#1c2238"/><rect x="714" y="156" width="14" height="14" fill="#1c2238"/><rect x="731" y="156" width="14" height="14" fill="#1c2238"/><rect x="748" y="156" width="14" height="14" fill="#1c2238"/><rect x="765" y="156" width="14" height="14" fill="#1c2238"/><rect x="782" y="156" width="14" height="14" fill="#1c2238"/><rect x="799" y="156" width="14" height="14" fill="#1c2238"/><rect x="816" y="156" width="14" height="14" fill="#1c2238"/><rect x="833" y="156" width="14" height="14" fill="#1c2238"/><rect x="850" y="156" width="14" height="14" fill="#1c2238"/><rect x="867" y="156" width="14" height="14" fill="#1c2238"/><rect x="884" y="156" width="14" height="14" fill="#1c2238"/><rect x="901" y="156" width="14" height="14" fill="#1c2238"/><rect x="918" y="156" width="14" height="14" fill="#1c2238"/><rect x="918" y="173" width="14" height="14" fill="#1c2238"/><rect x="901" y="173" width="14" height="14" fill="#1c2238"/><rect x="884" y="173" width="14" height="14" fill="#1c2238"/><rect x="867" y="173" width="14" height="14" fill="#1c2238"/><rect x="850" y="173" width="14" height="14" fill="#1c2238"/><rect x="833" y="173" width="14" height="14" fill="#1c2238"/><rect x="816" y="173" width="14" height="14" fill="#1c2238"/><rect x="799" y="173" width="14" height="14" fill="#1c2238"/><rect x="782" y="173" width="14" height="14" fill="#1c2238"/><rect x="765" y="173" width="14" height="14" fill="#1c2238"/><rect x="748" y="173" width="14" height="14" fill="#1c2238"/><rect x="731" y="173" width="14" height="14" fill="#1c2238"/><rect x="714" y="173" width="14" height="14" fill="#1c2238"/><rect x="697" y="173" width="14" height="14" fill="#1c2238"/><rect x="680" y="173" width="14" height="14" fill="#1c2238"/><rect x="663" y="173" width="14" height="14" fill="#1c2238"/><rect x="646" y="173" width="14" height="14" fill="#1c2238"/><rect x="629" y="173" width="14" height="14" fill="#1c2238"/><rect x="612" y="173" width="14" height="14" fill="#1c2238"/><rect x="595" y="173" width="14" height="14" fill="#1c2238"/><rect x="578" y="173" width="14" height="14" fill="#1c2238"/><rect x="561" y="173" width="14" height="14" fill="#1c2238"/><rect x="544" y="173" width="14" height="14" fill="#1c2238"/><rect x="527" y="173" width="14" height="14" fill="#1c2238"/><rect x="510" y="173" width="14" height="14" fill="#1c2238"/><rect x="493" y="173" width="14" height="14" fill="#1c2238"/><rect x="476" y="173" width="14" height="14" fill="#1c2238"/><rect x="459" y="173" width="14" height="14" fill="#1c2238"/><rect x="442" y="173" width="14" height="14" fill="#1c2238"/><rect x="425" y="173" width="14" height="14" fill="#1c2238"/><rect x="408" y="173" width="14" height="14" fill="#1c2238"/><rect x="391" y="173" width="14" height="14" fill="#1c2238"/><rect x="374" y="173" width="14" height="14" fill="#1c2238"/><rect x="357" y="173" width="14" height="14" fill="#1c2238"/><rect x="340" y="173" width="14" height="14" fill="#1c2238"/><rect x="323" y="173" width="14" height="14" fill="#1c2238"/><rect x="306" y="173" width="14" height="14" fill="#1c2238"/><rect x="289" y="173" width="14" height="14" fill="#1c2238"/><rect x="272" y="173" width="14" height="14" fill="#1c2238"/><rect x="255" y="173" width="14" height="14" fill="#1c2238"/><rect x="238" y="173" width="14" height="14" fill="#1c2238"/><rect x="221" y="173" width="14" height="14" fill="#1c2238"/><rect x="204" y="173" width="14" height="14" fill="#1c2238"/><rect x="187" y="173" width="14" height="14" fill="#1c2238"/><rect x="170" y="173" width="14" height="14" fill="#1c2238"/><rect x="153" y="173" width="14" height="14" fill="#1c2238"/><rect x="136" y="173" width="14" height="14" fill="#1c2238"/><rect x="119" y="173" width="14" height="14" fill="#1c2238"/><rect x="102" y="173" width="14" height="14" fill="#1c2238"/><rect x="85" y="173" width="14" height="14" fill="#1c2238"/><rect x="68" y="173" width="14" height="14" fill="#1c2238"/><rect x="51" y="173" width="14" height="14" fill="#1c2238"/><rect x="51" y="190" width="14" height="14" fill="#1c2238"/><rect x="68" y="190" width="14" height="14" fill="#1c2238"/><rect x="85" y="190" width="14" height="14" fill="#1c2238"/><rect x="102" y="190" width="14" height="14" fill="#1c2238"/><rect x="119" y="190" width="14" height="14" fill="#1c2238"/><rect x="136" y="190" width="14" height="14" fill="#1c2238"/><rect x="153" y="190" width="14" height="14" fill="#1c2238"/><rect x="170" y="190" width="14" height="14" fill="#1c2238"/><rect x="187" y="190" width="14" height="14" fill="#1c2238"/><rect x="204" y="190" width="14" height="14" fill="#1c2238"/><rect x="221" y="190" width="14" height="14" fill="#1c2238"/><rect x="238" y="190" width="14" height="14" fill="#1c2238"/><rect x="255" y="190" width="14" height="14" fill="#1c2238"/><rect x="272" y="190" width="14" height="14" fill="#1c2238"/><rect x="289" y="190" width="14" height="14" fill="#1c2238"/><rect x="306" y="190" width="14" height="14" fill="#1c2238"/><rect x="323" y="190" width="14" height="14" fill="#1c2238"/><rect x="340" y="190" width="14" height="14" fill="#1c2238"/><rect x="357" y="190" width="14" height="14" fill="#1c2238"/><rect x="374" y="190" width="14" height="14" fill="#1c2238"/><rect x="391" y="190" width="14" height="14" fill="#1c2238"/><rect x="408" y="190" width="14" height="14" fill="#1c2238"/><rect x="425" y="190" width="14" height="14" fill="#1c2238"/><rect x="442" y="190" width="14" height="14" fill="#1c2238"/><rect x="459" y="190" width="14" height="14" fill="#1c2238"/><rect x="476" y="190" width="14" height="14" fill="#1c2238"/><rect x="493" y="190" width="14" height="14" fill="#1c2238"/><rect x="510" y="190" width="14" height="14" fill="#1c2238"/><rect x="527" y="190" width="14" height="14" fill="#1c2238"/><rect x="544" y="190" width="14" height="14" fill="#1c2238"/><rect x="561" y="190" width="14" height="14" fill="#1c2238"/><rect x="578" y="190" width="14" height="14" fill="#1c2238"/><rect x="595" y="190" width="14" height="14" fill="#1c2238"/><rect x="612" y="190" width="14" height="14" fill="#1c2238"/><rect x="629" y="190" width="14" height="14" fill="#1c2238"/><rect x="646" y="190" width="14" height="14" fill="#1c2238"/><rect x="663" y="190" width="14" height="14" fill="#1c2238"/><rect x="680" y="190" width="14" height="14" fill="#1c2238"/><rect x="697" y="190" width="14" height="14" fill="#1c2238"/><rect x="714" y="190" width="14" height="14" fill="#1c2238"/><rect x="731" y="190" width="14" height="14" fill="#1c2238"/><rect x="748" y="190" width="14" height="14" fill="#1c2238"/><rect x="765" y="190" width="14" height="14" fill="#1c2238"/><rect x="782" y="190" width="14" height="14" fill="#1c2238"/><rect x="799" y="190" width="14" height="14" fill="#1c2238"/><rect x="816" y="190" width="14" height="14" fill="#1c2238"/><rect x="833" y="190" width="14" height="14" fill="#1c2238"/><rect x="850" y="190" width="14" height="14" fill="#1c2238"/><rect x="867" y="190" width="14" height="14" fill="#1c2238"/><rect x="884" y="190" width="14" height="14" fill="#1c2238"/><rect x="901" y="190" width="14" height="14" fill="#1c2238"/><rect x="918" y="190" width="14" height="14" fill="#1c2238"/><rect x="612" y="105" width="14" height="14" fill="#3e8948"><animate attributeName="opacity" values="1;0" keyTimes="0;0.1962" calcMode="discrete" dur="44.0s" begin="-1.2s" repeatCount="indefinite"/></rect><rect x="595" y="105" width="14" height="14" fill="#265c42"><animate attributeName="opacity" values="1;0" keyTimes="0;0.1989" calcMode="discrete" dur="44.0s" begin="-1.2s" repeatCount="indefinite"/></rect><rect x="578" y="105" width="14" height="14" fill="#3e8948"><animate attributeName="opacity" values="1;0" keyTimes="0;0.2016" calcMode="discrete" dur="44.0s" begin="-1.2s" repeatCount="indefinite"/></rect><rect x="170" y="105" width="14" height="14" fill="#265c42"><animate attributeName="opacity" values="1;0" keyTimes="0;0.2670" calcMode="discrete" dur="44.0s" begin="-1.2s" repeatCount="indefinite"/></rect><rect x="578" y="122" width="14" height="14" fill="#265c42"><animate attributeName="opacity" values="1;0" keyTimes="0;0.3733" calcMode="discrete" dur="44.0s" begin="-1.2s" repeatCount="indefinite"/></rect><rect x="612" y="122" width="14" height="14" fill="#265c42"><animate attributeName="opacity" values="1;0" keyTimes="0;0.3787" calcMode="discrete" dur="44.0s" begin="-1.2s" repeatCount="indefinite"/></rect><rect x="629" y="122" width="14" height="14" fill="#265c42"><animate attributeName="opacity" values="1;0" keyTimes="0;0.3815" calcMode="discrete" dur="44.0s" begin="-1.2s" repeatCount="indefinite"/></rect><rect x="935" y="122" width="14" height="14" fill="#265c42"><animate attributeName="opacity" values="1;0" keyTimes="0;0.4305" calcMode="discrete" dur="44.0s" begin="-1.2s" repeatCount="indefinite"/></rect><rect x="935" y="139" width="14" height="14" fill="#b6f05a"><animate attributeName="opacity" values="1;0" keyTimes="0;0.4332" calcMode="discrete" dur="44.0s" begin="-1.2s" repeatCount="indefinite"/></rect><rect x="119" y="139" width="14" height="14" fill="#265c42"><animate attributeName="opacity" values="1;0" keyTimes="0;0.5640" calcMode="discrete" dur="44.0s" begin="-1.2s" repeatCount="indefinite"/></rect><rect x="85" y="139" width="14" height="14" fill="#265c42"><animate attributeName="opacity" values="1;0" keyTimes="0;0.5695" calcMode="discrete" dur="44.0s" begin="-1.2s" repeatCount="indefinite"/></rect><rect x="85" y="156" width="14" height="14" fill="#265c42"><animate attributeName="opacity" values="1;0" keyTimes="0;0.5831" calcMode="discrete" dur="44.0s" begin="-1.2s" repeatCount="indefinite"/></rect><rect x="612" y="156" width="14" height="14" fill="#63c74d"><animate attributeName="opacity" values="1;0" keyTimes="0;0.6676" calcMode="discrete" dur="44.0s" begin="-1.2s" repeatCount="indefinite"/></rect><rect x="918" y="173" width="14" height="14" fill="#b6f05a"><animate attributeName="opacity" values="1;0" keyTimes="0;0.7193" calcMode="discrete" dur="44.0s" begin="-1.2s" repeatCount="indefinite"/></rect><rect x="612" y="173" width="14" height="14" fill="#3e8948"><animate attributeName="opacity" values="1;0" keyTimes="0;0.7684" calcMode="discrete" dur="44.0s" begin="-1.2s" repeatCount="indefinite"/></rect><rect x="561" y="173" width="14" height="14" fill="#3e8948"><animate attributeName="opacity" values="1;0" keyTimes="0;0.7766" calcMode="discrete" dur="44.0s" begin="-1.2s" repeatCount="indefinite"/></rect><rect x="918" y="190" width="14" height="14" fill="#265c42"><animate attributeName="opacity" values="1;0" keyTimes="0;1.0000" calcMode="discrete" dur="44.0s" begin="-1.2s" repeatCount="indefinite"/></rect><g><g class="flu"><path fill="#b55088" d="M-4 -8h8v2h-8zM-8 -6h16v2h-16zM-10 -4h20v2h-20zM-10 -2h4v2h-4zM-2 -2h4v2h-4zM6 -2h4v2h-4zM-10 0h4v2h-4zM-2 0h4v2h-4zM6 0h4v2h-4zM-10 2h20v2h-20zM-10 4h20v2h-20zM-10 6h4v2h-4zM-4 6h4v2h-4zM2 6h4v2h-4zM8 6h2v2h-2z"/><path fill="#f4f4f4" d="M-6 -2h4v2h-4zM2 -2h4v2h-4zM-6 0h2v2h-2zM2 0h2v2h-2z"/><path fill="#1a1c2c" d="M-4 0h2v2h-2zM4 0h2v2h-2z"/></g><animateMotion path="M58 95 L75 95 L92 95 L109 95 L126 95 L143 95 L160 95 L177 95 L194 95 L211 95 L228 95 L245 95 L262 95 L279 95 L296 95 L313 95 L330 95 L347 95 L364 95 L381 95 L398 95 L415 95 L432 95 L449 95 L466 95 L483 95 L500 95 L517 95 L534 95 L551 95 L568 95 L585 95 L602 95 L619 95 L636 95 L653 95 L670 95 L687 95 L704 95 L721 95 L738 95 L755 95 L772 95 L789 95 L806 95 L823 95 L840 95 L857 95 L874 95 L891 95 L908 95 L925 95 L942 95 L942 112 L925 112 L908 112 L891 112 L874 112 L857 112 L840 112 L823 112 L806 112 L789 112 L772 112 L755 112 L738 112 L721 112 L704 112 L687 112 L670 112 L653 112 L636 112 L619 112 L602 112 L585 112 L568 112 L551 112 L534 112 L517 112 L500 112 L483 112 L466 112 L449 112 L432 112 L415 112 L398 112 L381 112 L364 112 L347 112 L330 112 L313 112 L296 112 L279 112 L262 112 L245 112 L228 112 L211 112 L194 112 L177 112 L160 112 L143 112 L126 112 L109 112 L92 112 L75 112 L58 112 L58 129 L75 129 L92 129 L109 129 L126 129 L143 129 L160 129 L177 129 L194 129 L211 129 L228 129 L245 129 L262 129 L279 129 L296 129 L313 129 L330 129 L347 129 L364 129 L381 129 L398 129 L415 129 L432 129 L449 129 L466 129 L483 129 L500 129 L517 129 L534 129 L551 129 L568 129 L585 129 L602 129 L619 129 L636 129 L653 129 L670 129 L687 129 L704 129 L721 129 L738 129 L755 129 L772 129 L789 129 L806 129 L823 129 L840 129 L857 129 L874 129 L891 129 L908 129 L925 129 L942 129 L942 146 L925 146 L908 146 L891 146 L874 146 L857 146 L840 146 L823 146 L806 146 L789 146 L772 146 L755 146 L738 146 L721 146 L704 146 L687 146 L670 146 L653 146 L636 146 L619 146 L602 146 L585 146 L568 146 L551 146 L534 146 L517 146 L500 146 L483 146 L466 146 L449 146 L432 146 L415 146 L398 146 L381 146 L364 146 L347 146 L330 146 L313 146 L296 146 L279 146 L262 146 L245 146 L228 146 L211 146 L194 146 L177 146 L160 146 L143 146 L126 146 L109 146 L92 146 L75 146 L58 146 L58 163 L75 163 L92 163 L109 163 L126 163 L143 163 L160 163 L177 163 L194 163 L211 163 L228 163 L245 163 L262 163 L279 163 L296 163 L313 163 L330 163 L347 163 L364 163 L381 163 L398 163 L415 163 L432 163 L449 163 L466 163 L483 163 L500 163 L517 163 L534 163 L551 163 L568 163 L585 163 L602 163 L619 163 L636 163 L653 163 L670 163 L687 163 L704 163 L721 163 L738 163 L755 163 L772 163 L789 163 L806 163 L823 163 L840 163 L857 163 L874 163 L891 163 L908 163 L925 163 L925 180 L908 180 L891 180 L874 180 L857 180 L840 180 L823 180 L806 180 L789 180 L772 180 L755 180 L738 180 L721 180 L704 180 L687 180 L670 180 L653 180 L636 180 L619 180 L602 180 L585 180 L568 180 L551 180 L534 180 L517 180 L500 180 L483 180 L466 180 L449 180 L432 180 L415 180 L398 180 L381 180 L364 180 L347 180 L330 180 L313 180 L296 180 L279 180 L262 180 L245 180 L228 180 L211 180 L194 180 L177 180 L160 180 L143 180 L126 180 L109 180 L92 180 L75 180 L58 180 L58 197 L75 197 L92 197 L109 197 L126 197 L143 197 L160 197 L177 197 L194 197 L211 197 L228 197 L245 197 L262 197 L279 197 L296 197 L313 197 L330 197 L347 197 L364 197 L381 197 L398 197 L415 197 L432 197 L449 197 L466 197 L483 197 L500 197 L517 197 L534 197 L551 197 L568 197 L585 197 L602 197 L619 197 L636 197 L653 197 L670 197 L687 197 L704 197 L721 197 L738 197 L755 197 L772 197 L789 197 L806 197 L823 197 L840 197 L857 197 L874 197 L891 197 L908 197 L925 197" dur="44.04s" begin="-0.72s" repeatCount="indefinite" calcMode="paced"/></g><g><g class="flu"><path fill="#f77622" d="M-4 -8h8v2h-8zM-8 -6h16v2h-16zM-10 -4h20v2h-20zM-10 -2h4v2h-4zM-2 -2h4v2h-4zM6 -2h4v2h-4zM-10 0h4v2h-4zM-2 0h4v2h-4zM6 0h4v2h-4zM-10 2h20v2h-20zM-10 4h20v2h-20zM-10 6h4v2h-4zM-4 6h4v2h-4zM2 6h4v2h-4zM8 6h2v2h-2z"/><path fill="#f4f4f4" d="M-6 -2h4v2h-4zM2 -2h4v2h-4zM-6 0h2v2h-2zM2 0h2v2h-2z"/><path fill="#1a1c2c" d="M-4 0h2v2h-2zM4 0h2v2h-2z"/></g><animateMotion path="M58 95 L75 95 L92 95 L109 95 L126 95 L143 95 L160 95 L177 95 L194 95 L211 95 L228 95 L245 95 L262 95 L279 95 L296 95 L313 95 L330 95 L347 95 L364 95 L381 95 L398 95 L415 95 L432 95 L449 95 L466 95 L483 95 L500 95 L517 95 L534 95 L551 95 L568 95 L585 95 L602 95 L619 95 L636 95 L653 95 L670 95 L687 95 L704 95 L721 95 L738 95 L755 95 L772 95 L789 95 L806 95 L823 95 L840 95 L857 95 L874 95 L891 95 L908 95 L925 95 L942 95 L942 112 L925 112 L908 112 L891 112 L874 112 L857 112 L840 112 L823 112 L806 112 L789 112 L772 112 L755 112 L738 112 L721 112 L704 112 L687 112 L670 112 L653 112 L636 112 L619 112 L602 112 L585 112 L568 112 L551 112 L534 112 L517 112 L500 112 L483 112 L466 112 L449 112 L432 112 L415 112 L398 112 L381 112 L364 112 L347 112 L330 112 L313 112 L296 112 L279 112 L262 112 L245 112 L228 112 L211 112 L194 112 L177 112 L160 112 L143 112 L126 112 L109 112 L92 112 L75 112 L58 112 L58 129 L75 129 L92 129 L109 129 L126 129 L143 129 L160 129 L177 129 L194 129 L211 129 L228 129 L245 129 L262 129 L279 129 L296 129 L313 129 L330 129 L347 129 L364 129 L381 129 L398 129 L415 129 L432 129 L449 129 L466 129 L483 129 L500 129 L517 129 L534 129 L551 129 L568 129 L585 129 L602 129 L619 129 L636 129 L653 129 L670 129 L687 129 L704 129 L721 129 L738 129 L755 129 L772 129 L789 129 L806 129 L823 129 L840 129 L857 129 L874 129 L891 129 L908 129 L925 129 L942 129 L942 146 L925 146 L908 146 L891 146 L874 146 L857 146 L840 146 L823 146 L806 146 L789 146 L772 146 L755 146 L738 146 L721 146 L704 146 L687 146 L670 146 L653 146 L636 146 L619 146 L602 146 L585 146 L568 146 L551 146 L534 146 L517 146 L500 146 L483 146 L466 146 L449 146 L432 146 L415 146 L398 146 L381 146 L364 146 L347 146 L330 146 L313 146 L296 146 L279 146 L262 146 L245 146 L228 146 L211 146 L194 146 L177 146 L160 146 L143 146 L126 146 L109 146 L92 146 L75 146 L58 146 L58 163 L75 163 L92 163 L109 163 L126 163 L143 163 L160 163 L177 163 L194 163 L211 163 L228 163 L245 163 L262 163 L279 163 L296 163 L313 163 L330 163 L347 163 L364 163 L381 163 L398 163 L415 163 L432 163 L449 163 L466 163 L483 163 L500 163 L517 163 L534 163 L551 163 L568 163 L585 163 L602 163 L619 163 L636 163 L653 163 L670 163 L687 163 L704 163 L721 163 L738 163 L755 163 L772 163 L789 163 L806 163 L823 163 L840 163 L857 163 L874 163 L891 163 L908 163 L925 163 L925 180 L908 180 L891 180 L874 180 L857 180 L840 180 L823 180 L806 180 L789 180 L772 180 L755 180 L738 180 L721 180 L704 180 L687 180 L670 180 L653 180 L636 180 L619 180 L602 180 L585 180 L568 180 L551 180 L534 180 L517 180 L500 180 L483 180 L466 180 L449 180 L432 180 L415 180 L398 180 L381 180 L364 180 L347 180 L330 180 L313 180 L296 180 L279 180 L262 180 L245 180 L228 180 L211 180 L194 180 L177 180 L160 180 L143 180 L126 180 L109 180 L92 180 L75 180 L58 180 L58 197 L75 197 L92 197 L109 197 L126 197 L143 197 L160 197 L177 197 L194 197 L211 197 L228 197 L245 197 L262 197 L279 197 L296 197 L313 197 L330 197 L347 197 L364 197 L381 197 L398 197 L415 197 L432 197 L449 197 L466 197 L483 197 L500 197 L517 197 L534 197 L551 197 L568 197 L585 197 L602 197 L619 197 L636 197 L653 197 L670 197 L687 197 L704 197 L721 197 L738 197 L755 197 L772 197 L789 197 L806 197 L823 197 L840 197 L857 197 L874 197 L891 197 L908 197 L925 197" dur="44.04s" begin="-0.36s" repeatCount="indefinite" calcMode="paced"/></g><g><g class="flu"><path fill="#e43b8f" d="M-4 -8h8v2h-8zM-8 -6h16v2h-16zM-10 -4h20v2h-20zM-10 -2h4v2h-4zM-2 -2h4v2h-4zM6 -2h4v2h-4zM-10 0h4v2h-4zM-2 0h4v2h-4zM6 0h4v2h-4zM-10 2h20v2h-20zM-10 4h20v2h-20zM-10 6h4v2h-4zM-4 6h4v2h-4zM2 6h4v2h-4zM8 6h2v2h-2z"/><path fill="#f4f4f4" d="M-6 -2h4v2h-4zM2 -2h4v2h-4zM-6 0h2v2h-2zM2 0h2v2h-2z"/><path fill="#1a1c2c" d="M-4 0h2v2h-2zM4 0h2v2h-2z"/></g><animateMotion path="M58 95 L75 95 L92 95 L109 95 L126 95 L143 95 L160 95 L177 95 L194 95 L211 95 L228 95 L245 95 L262 95 L279 95 L296 95 L313 95 L330 95 L347 95 L364 95 L381 95 L398 95 L415 95 L432 95 L449 95 L466 95 L483 95 L500 95 L517 95 L534 95 L551 95 L568 95 L585 95 L602 95 L619 95 L636 95 L653 95 L670 95 L687 95 L704 95 L721 95 L738 95 L755 95 L772 95 L789 95 L806 95 L823 95 L840 95 L857 95 L874 95 L891 95 L908 95 L925 95 L942 95 L942 112 L925 112 L908 112 L891 112 L874 112 L857 112 L840 112 L823 112 L806 112 L789 112 L772 112 L755 112 L738 112 L721 112 L704 112 L687 112 L670 112 L653 112 L636 112 L619 112 L602 112 L585 112 L568 112 L551 112 L534 112 L517 112 L500 112 L483 112 L466 112 L449 112 L432 112 L415 112 L398 112 L381 112 L364 112 L347 112 L330 112 L313 112 L296 112 L279 112 L262 112 L245 112 L228 112 L211 112 L194 112 L177 112 L160 112 L143 112 L126 112 L109 112 L92 112 L75 112 L58 112 L58 129 L75 129 L92 129 L109 129 L126 129 L143 129 L160 129 L177 129 L194 129 L211 129 L228 129 L245 129 L262 129 L279 129 L296 129 L313 129 L330 129 L347 129 L364 129 L381 129 L398 129 L415 129 L432 129 L449 129 L466 129 L483 129 L500 129 L517 129 L534 129 L551 129 L568 129 L585 129 L602 129 L619 129 L636 129 L653 129 L670 129 L687 129 L704 129 L721 129 L738 129 L755 129 L772 129 L789 129 L806 129 L823 129 L840 129 L857 129 L874 129 L891 129 L908 129 L925 129 L942 129 L942 146 L925 146 L908 146 L891 146 L874 146 L857 146 L840 146 L823 146 L806 146 L789 146 L772 146 L755 146 L738 146 L721 146 L704 146 L687 146 L670 146 L653 146 L636 146 L619 146 L602 146 L585 146 L568 146 L551 146 L534 146 L517 146 L500 146 L483 146 L466 146 L449 146 L432 146 L415 146 L398 146 L381 146 L364 146 L347 146 L330 146 L313 146 L296 146 L279 146 L262 146 L245 146 L228 146 L211 146 L194 146 L177 146 L160 146 L143 146 L126 146 L109 146 L92 146 L75 146 L58 146 L58 163 L75 163 L92 163 L109 163 L126 163 L143 163 L160 163 L177 163 L194 163 L211 163 L228 163 L245 163 L262 163 L279 163 L296 163 L313 163 L330 163 L347 163 L364 163 L381 163 L398 163 L415 163 L432 163 L449 163 L466 163 L483 163 L500 163 L517 163 L534 163 L551 163 L568 163 L585 163 L602 163 L619 163 L636 163 L653 163 L670 163 L687 163 L704 163 L721 163 L738 163 L755 163 L772 163 L789 163 L806 163 L823 163 L840 163 L857 163 L874 163 L891 163 L908 163 L925 163 L925 180 L908 180 L891 180 L874 180 L857 180 L840 180 L823 180 L806 180 L789 180 L772 180 L755 180 L738 180 L721 180 L704 180 L687 180 L670 180 L653 180 L636 180 L619 180 L602 180 L585 180 L568 180 L551 180 L534 180 L517 180 L500 180 L483 180 L466 180 L449 180 L432 180 L415 180 L398 180 L381 180 L364 180 L347 180 L330 180 L313 180 L296 180 L279 180 L262 180 L245 180 L228 180 L211 180 L194 180 L177 180 L160 180 L143 180 L126 180 L109 180 L92 180 L75 180 L58 180 L58 197 L75 197 L92 197 L109 197 L126 197 L143 197 L160 197 L177 197 L194 197 L211 197 L228 197 L245 197 L262 197 L279 197 L296 197 L313 197 L330 197 L347 197 L364 197 L381 197 L398 197 L415 197 L432 197 L449 197 L466 197 L483 197 L500 197 L517 197 L534 197 L551 197 L568 197 L585 197 L602 197 L619 197 L636 197 L653 197 L670 197 L687 197 L704 197 L721 197 L738 197 L755 197 L772 197 L789 197 L806 197 L823 197 L840 197 L857 197 L874 197 L891 197 L908 197 L925 197" dur="44.04s" begin="0.00s" repeatCount="indefinite" calcMode="paced"/></g><g><g class="pula"><g><path fill="#e43b44" d="M4 -12h4v2h-4zM2 -10h6v2h-6zM10 -4h2v2h-2z"/><path fill="#566c86" d="M2 -8h2v2h-2zM8 -8h2v2h-2zM0 -6h2v2h-2zM0 -4h2v2h-2zM8 -4h2v2h-2zM-12 -2h2v2h-2zM0 -2h2v2h-2zM8 -2h2v2h-2zM-12 0h4v2h-4zM-2 0h2v2h-2zM8 0h2v2h-2zM-12 2h2v2h-2zM-8 2h2v2h-2zM-4 2h2v2h-2zM10 2h2v2h-2zM-10 4h2v2h-2zM-6 4h2v2h-2zM8 4h2v2h-2zM-8 6h2v2h-2zM6 6h2v2h-2z"/><path fill="#f4f4f4" d="M4 -8h4v2h-4zM2 -6h4v2h-4zM2 -4h6v2h-6zM2 -2h6v2h-6zM0 0h2v2h-2zM4 0h2v2h-2zM-10 2h2v2h-2zM-2 2h2v2h-2zM2 2h2v2h-2zM6 2h2v2h-2zM-8 4h2v2h-2zM-4 4h2v2h-2zM0 4h2v2h-2zM4 4h2v2h-2zM-6 6h2v2h-2zM-2 6h2v2h-2zM2 6h2v2h-2z"/><path fill="#1a1c2c" d="M6 -6h2v2h-2zM8 -6h2v2h-2zM2 0h2v2h-2zM6 0h2v2h-2zM0 2h2v2h-2zM4 2h2v2h-2zM8 2h2v2h-2zM-2 4h2v2h-2zM2 4h2v2h-2zM6 4h2v2h-2zM-4 6h2v2h-2zM0 6h2v2h-2zM4 6h2v2h-2z"/><path fill="#feae34" d="M10 -6h4v2h-4zM-4 8h2v2h-2zM2 8h2v2h-2zM-6 10h4v2h-4zM2 10h4v2h-4z"/><animate attributeName="opacity" values="1;0;1;0;1;0;1" keyTimes="0.0000;0.1444;0.2888;0.4332;0.5777;0.7193;0.8610" calcMode="discrete" dur="44.04s" begin="-1.20s" repeatCount="indefinite"/></g><g transform="scale(-1,1)" opacity="0"><path fill="#e43b44" d="M4 -12h4v2h-4zM2 -10h6v2h-6zM10 -4h2v2h-2z"/><path fill="#566c86" d="M2 -8h2v2h-2zM8 -8h2v2h-2zM0 -6h2v2h-2zM0 -4h2v2h-2zM8 -4h2v2h-2zM-12 -2h2v2h-2zM0 -2h2v2h-2zM8 -2h2v2h-2zM-12 0h4v2h-4zM-2 0h2v2h-2zM8 0h2v2h-2zM-12 2h2v2h-2zM-8 2h2v2h-2zM-4 2h2v2h-2zM10 2h2v2h-2zM-10 4h2v2h-2zM-6 4h2v2h-2zM8 4h2v2h-2zM-8 6h2v2h-2zM6 6h2v2h-2z"/><path fill="#f4f4f4" d="M4 -8h4v2h-4zM2 -6h4v2h-4zM2 -4h6v2h-6zM2 -2h6v2h-6zM0 0h2v2h-2zM4 0h2v2h-2zM-10 2h2v2h-2zM-2 2h2v2h-2zM2 2h2v2h-2zM6 2h2v2h-2zM-8 4h2v2h-2zM-4 4h2v2h-2zM0 4h2v2h-2zM4 4h2v2h-2zM-6 6h2v2h-2zM-2 6h2v2h-2zM2 6h2v2h-2z"/><path fill="#1a1c2c" d="M6 -6h2v2h-2zM8 -6h2v2h-2zM2 0h2v2h-2zM6 0h2v2h-2zM0 2h2v2h-2zM4 2h2v2h-2zM8 2h2v2h-2zM-2 4h2v2h-2zM2 4h2v2h-2zM6 4h2v2h-2zM-4 6h2v2h-2zM0 6h2v2h-2zM4 6h2v2h-2z"/><path fill="#feae34" d="M10 -6h4v2h-4zM-4 8h2v2h-2zM2 8h2v2h-2zM-6 10h4v2h-4zM2 10h4v2h-4z"/><animate attributeName="opacity" values="0;1;0;1;0;1;0" keyTimes="0.0000;0.1444;0.2888;0.4332;0.5777;0.7193;0.8610" calcMode="discrete" dur="44.04s" begin="-1.20s" repeatCount="indefinite"/></g></g><animateMotion path="M58 95 L75 95 L92 95 L109 95 L126 95 L143 95 L160 95 L177 95 L194 95 L211 95 L228 95 L245 95 L262 95 L279 95 L296 95 L313 95 L330 95 L347 95 L364 95 L381 95 L398 95 L415 95 L432 95 L449 95 L466 95 L483 95 L500 95 L517 95 L534 95 L551 95 L568 95 L585 95 L602 95 L619 95 L636 95 L653 95 L670 95 L687 95 L704 95 L721 95 L738 95 L755 95 L772 95 L789 95 L806 95 L823 95 L840 95 L857 95 L874 95 L891 95 L908 95 L925 95 L942 95 L942 112 L925 112 L908 112 L891 112 L874 112 L857 112 L840 112 L823 112 L806 112 L789 112 L772 112 L755 112 L738 112 L721 112 L704 112 L687 112 L670 112 L653 112 L636 112 L619 112 L602 112 L585 112 L568 112 L551 112 L534 112 L517 112 L500 112 L483 112 L466 112 L449 112 L432 112 L415 112 L398 112 L381 112 L364 112 L347 112 L330 112 L313 112 L296 112 L279 112 L262 112 L245 112 L228 112 L211 112 L194 112 L177 112 L160 112 L143 112 L126 112 L109 112 L92 112 L75 112 L58 112 L58 129 L75 129 L92 129 L109 129 L126 129 L143 129 L160 129 L177 129 L194 129 L211 129 L228 129 L245 129 L262 129 L279 129 L296 129 L313 129 L330 129 L347 129 L364 129 L381 129 L398 129 L415 129 L432 129 L449 129 L466 129 L483 129 L500 129 L517 129 L534 129 L551 129 L568 129 L585 129 L602 129 L619 129 L636 129 L653 129 L670 129 L687 129 L704 129 L721 129 L738 129 L755 129 L772 129 L789 129 L806 129 L823 129 L840 129 L857 129 L874 129 L891 129 L908 129 L925 129 L942 129 L942 146 L925 146 L908 146 L891 146 L874 146 L857 146 L840 146 L823 146 L806 146 L789 146 L772 146 L755 146 L738 146 L721 146 L704 146 L687 146 L670 146 L653 146 L636 146 L619 146 L602 146 L585 146 L568 146 L551 146 L534 146 L517 146 L500 146 L483 146 L466 146 L449 146 L432 146 L415 146 L398 146 L381 146 L364 146 L347 146 L330 146 L313 146 L296 146 L279 146 L262 146 L245 146 L228 146 L211 146 L194 146 L177 146 L160 146 L143 146 L126 146 L109 146 L92 146 L75 146 L58 146 L58 163 L75 163 L92 163 L109 163 L126 163 L143 163 L160 163 L177 163 L194 163 L211 163 L228 163 L245 163 L262 163 L279 163 L296 163 L313 163 L330 163 L347 163 L364 163 L381 163 L398 163 L415 163 L432 163 L449 163 L466 163 L483 163 L500 163 L517 163 L534 163 L551 163 L568 163 L585 163 L602 163 L619 163 L636 163 L653 163 L670 163 L687 163 L704 163 L721 163 L738 163 L755 163 L772 163 L789 163 L806 163 L823 163 L840 163 L857 163 L874 163 L891 163 L908 163 L925 163 L925 180 L908 180 L891 180 L874 180 L857 180 L840 180 L823 180 L806 180 L789 180 L772 180 L755 180 L738 180 L721 180 L704 180 L687 180 L670 180 L653 180 L636 180 L619 180 L602 180 L585 180 L568 180 L551 180 L534 180 L517 180 L500 180 L483 180 L466 180 L449 180 L432 180 L415 180 L398 180 L381 180 L364 180 L347 180 L330 180 L313 180 L296 180 L279 180 L262 180 L245 180 L228 180 L211 180 L194 180 L177 180 L160 180 L143 180 L126 180 L109 180 L92 180 L75 180 L58 180 L58 197 L75 197 L92 197 L109 197 L126 197 L143 197 L160 197 L177 197 L194 197 L211 197 L228 197 L245 197 L262 197 L279 197 L296 197 L313 197 L330 197 L347 197 L364 197 L381 197 L398 197 L415 197 L432 197 L449 197 L466 197 L483 197 L500 197 L517 197 L534 197 L551 197 L568 197 L585 197 L602 197 L619 197 L636 197 L653 197 L670 197 L687 197 L704 197 L721 197 L738 197 L755 197 L772 197 L789 197 L806 197 L823 197 L840 197 L857 197 L874 197 L891 197 L908 197 L925 197" dur="44.04s" begin="-1.20s" repeatCount="indefinite" calcMode="paced"/></g></svg>