<svg xmlns="http://www.w3.org/2000/svg" width="1000" height="280" viewBox="0 0 1000 280" shape-rendering="crispEdges"><title>Ygor Marques - Implementação &amp; Automação de CRM</title><style>.tw{animation:tw 3s steps(2,end) infinite}@keyframes tw{50%{opacity:.15}}.walk{animation:walk 16s steps(160,end) infinite}@keyframes walk{from{transform:translateX(-60px)}to{transform:translateX(1000px)}}</style><rect width="1000" height="280" fill="#0d0b1e"/><rect class="tw" style="animation-delay:-0.14s" x="328" y="36" width="4" height="4" fill="#f4f4f4"/><rect class="tw" style="animation-delay:-1.75s" x="840" y="136" width="2" height="2" fill="#3a4466"/><rect class="tw" style="animation-delay:-0.26s" x="928" y="128" width="2" height="2" fill="#8b9bb4"/><rect class="tw" style="animation-delay:-1.65s" x="428" y="16" width="2" height="2" fill="#8b9bb4"/><rect class="tw" style="animation-delay:-1.89s" x="60" y="208" width="2" height="2" fill="#8b9bb4"/><rect class="tw" style="animation-delay:-2.93s" x="596" y="12" width="4" height="4" fill="#8b9bb4"/><rect class="tw" style="animation-delay:-1.26s" x="44" y="140" width="2" height="2" fill="#3a4466"/><rect class="tw" style="animation-delay:-2.45s" x="552" y="28" width="2" height="2" fill="#f4f4f4"/><rect class="tw" style="animation-delay:-0.29s" x="184" y="24" width="2" height="2" fill="#3a4466"/><rect class="tw" style="animation-delay:-0.62s" x="728" y="16" width="2" height="2" fill="#f4f4f4"/><rect class="tw" style="animation-delay:-1.40s" x="696" y="136" width="4" height="4" fill="#3a4466"/><rect class="tw" style="animation-delay:-0.75s" x="944" y="116" width="2" height="2" fill="#3a4466"/><rect class="tw" style="animation-delay:-1.72s" x="184" y="176" width="2" height="2" fill="#8b9bb4"/><rect class="tw" style="animation-delay:-1.35s" x="536" y="124" width="2" height="2" fill="#f4f4f4"/><rect class="tw" style="animation-delay:-1.25s" x="620" y="16" width="2" height="2" fill="#f4f4f4"/><rect class="tw" style="animation-delay:-1.27s" x="772" y="84" width="2" height="2" fill="#3a4466"/><rect class="tw" style="animation-delay:-1.72s" x="984" y="168" width="2" height="2" fill="#f4f4f4"/><rect class="tw" style="animation-delay:-2.09s" x="896" y="208" width="2" height="2" fill="#3a4466"/><rect class="tw" style="animation-delay:-2.52s" x="608" y="124" width="4" height="4" fill="#8b9bb4"/><rect class="tw" style="animation-delay:-1.99s" x="964" y="68" width="4" height="4" fill="#f4f4f4"/><rect class="tw" style="animation-delay:-1.73s" x="60" y="184" width="2" height="2" fill="#f4f4f4"/><rect class="tw" style="animation-delay:-2.15s" x="696" y="208" width="4" height="4" fill="#3a4466"/><rect class="tw" style="animation-delay:-2.82s" x="908" y="168" width="2" height="2" fill="#8b9bb4"/><rect class="tw" style="animation-delay:-0.18s" x="360" y="40" width="2" height="2" fill="#3a4466"/><rect class="tw" style="animation-delay:-0.74s" x="784" y="72" width="2" height="2" fill="#f4f4f4"/><rect class="tw" style="animation-delay:-0.50s" x="400" y="220" width="4" height="4" fill="#8b9bb4"/><rect class="tw" style="animation-delay:-2.46s" x="408" y="140" width="2" height="2" fill="#8b9bb4"/><rect class="tw" style="animation-delay:-1.25s" x="884" y="140" width="2" height="2" fill="#f4f4f4"/><rect class="tw" style="animation-delay:-0.45s" x="364" y="172" width="4" height="4" fill="#8b9bb4"/><rect class="tw" style="animation-delay:-0.70s" x="180" y="36" width="2" height="2" fill="#f4f4f4"/><rect class="tw" style="animation-delay:-0.85s" x="496" y="212" width="2" height="2" fill="#3a4466"/><rect class="tw" style="animation-delay:-1.70s" x="148" y="104" width="2" height="2" fill="#f4f4f4"/><rect class="tw" style="animation-delay:-2.70s" x="972" y="32" width="2" height="2" fill="#3a4466"/><rect class="tw" style="animation-delay:-1.20s" x="796" y="220" width="4" height="4" fill="#3a4466"/><rect class="tw" style="animation-delay:-0.57s" x="104" y="120" width="4" height="4" fill="#8b9bb4"/><rect class="tw" style="animation-delay:-1.02s" x="212" y="112" width="2" height="2" fill="#8b9bb4"/><rect class="tw" style="animation-delay:-0.45s" x="52" y="24" width="2" height="2" fill="#f4f4f4"/><rect class="tw" style="animation-delay:-2.62s" x="100" y="92" width="2" height="2" fill="#8b9bb4"/><rect class="tw" style="animation-delay:-0.76s" x="628" y="96" width="2" height="2" fill="#f4f4f4"/><rect class="tw" style="animation-delay:-0.37s" x="352" y="152" width="2" height="2" fill="#3a4466"/><path fill="#8b9bb4"  d="M30 24h2v2h-2zM38 24h2v2h-2zM30 26h2v2h-2zM38 26h2v2h-2zM32 28h2v2h-2zM36 28h2v2h-2zM34 30h2v2h-2zM34 32h2v2h-2zM34 34h2v2h-2zM34 36h2v2h-2zM44 24h6v2h-6zM42 26h2v2h-2zM50 26h2v2h-2zM42 28h2v2h-2zM42 30h2v2h-2zM46 30h6v2h-6zM42 32h2v2h-2zM50 32h2v2h-2zM42 34h2v2h-2zM50 34h2v2h-2zM44 36h8v2h-8zM56 24h6v2h-6zM54 26h2v2h-2zM62 26h2v2h-2zM54 28h2v2h-2zM62 28h2v2h-2zM54 30h2v2h-2zM62 30h2v2h-2zM54 32h2v2h-2zM62 32h2v2h-2zM54 34h2v2h-2zM62 34h2v2h-2zM56 36h6v2h-6zM66 24h8v2h-8zM66 26h2v2h-2zM74 26h2v2h-2zM66 28h2v2h-2zM74 28h2v2h-2zM66 30h8v2h-8zM66 32h2v2h-2zM70 32h2v2h-2zM66 34h2v2h-2zM72 34h2v2h-2zM66 36h2v2h-2zM74 36h2v2h-2zM78 24h2v2h-2zM86 24h2v2h-2zM78 26h4v2h-4zM84 26h4v2h-4zM78 28h2v2h-2zM82 28h2v2h-2zM86 28h2v2h-2zM78 30h2v2h-2zM82 30h2v2h-2zM86 30h2v2h-2zM78 32h2v2h-2zM86 32h2v2h-2zM78 34h2v2h-2zM86 34h2v2h-2zM78 36h2v2h-2zM86 36h2v2h-2zM92 24h6v2h-6zM90 26h2v2h-2zM98 26h2v2h-2zM90 28h2v2h-2zM98 28h2v2h-2zM90 30h10v2h-10zM90 32h2v2h-2zM98 32h2v2h-2zM90 34h2v2h-2zM98 34h2v2h-2zM90 36h2v2h-2zM98 36h2v2h-2zM102 24h8v2h-8zM102 26h2v2h-2zM110 26h2v2h-2zM102 28h2v2h-2zM110 28h2v2h-2zM102 30h8v2h-8zM102 32h2v2h-2zM106 32h2v2h-2zM102 34h2v2h-2zM108 34h2v2h-2zM102 36h2v2h-2zM110 36h2v2h-2zM116 24h6v2h-6zM114 26h2v2h-2zM122 26h2v2h-2zM114 28h2v2h-2zM122 28h2v2h-2zM114 30h2v2h-2zM122 30h2v2h-2zM114 32h2v2h-2zM118 32h2v2h-2zM122 32h2v2h-2zM114 34h2v2h-2zM120 34h2v2h-2zM116 36h4v2h-4zM122 36h2v2h-2zM126 24h2v2h-2zM134 24h2v2h-2zM126 26h2v2h-2zM134 26h2v2h-2zM126 28h2v2h-2zM134 28h2v2h-2zM126 30h2v2h-2zM134 30h2v2h-2zM126 32h2v2h-2zM134 32h2v2h-2zM126 34h2v2h-2zM134 34h2v2h-2zM128 36h6v2h-6zM138 24h10v2h-10zM138 26h2v2h-2zM138 28h2v2h-2zM138 30h8v2h-8zM138 32h2v2h-2zM138 34h2v2h-2zM138 36h10v2h-10zM152 24h8v2h-8zM150 26h2v2h-2zM150 28h2v2h-2zM152 30h6v2h-6zM158 32h2v2h-2zM158 34h2v2h-2zM150 36h8v2h-8zM162 24h10v2h-10zM170 26h2v2h-2zM168 28h2v2h-2zM166 30h2v2h-2zM164 32h2v2h-2zM164 34h2v2h-2zM164 36h2v2h-2z"/><path fill="#8b9bb4"  d="M768 24h2v2h-2zM776 24h2v2h-2zM768 26h4v2h-4zM774 26h4v2h-4zM768 28h2v2h-2zM772 28h2v2h-2zM776 28h2v2h-2zM768 30h2v2h-2zM772 30h2v2h-2zM776 30h2v2h-2zM768 32h2v2h-2zM776 32h2v2h-2zM768 34h2v2h-2zM776 34h2v2h-2zM768 36h2v2h-2zM776 36h2v2h-2zM782 24h6v2h-6zM784 26h2v2h-2zM784 28h2v2h-2zM784 30h2v2h-2zM784 32h2v2h-2zM784 34h2v2h-2zM782 36h6v2h-6zM792 24h2v2h-2zM800 24h2v2h-2zM792 26h2v2h-2zM800 26h2v2h-2zM792 28h4v2h-4zM800 28h2v2h-2zM792 30h2v2h-2zM796 30h2v2h-2zM800 30h2v2h-2zM792 32h2v2h-2zM798 32h4v2h-4zM792 34h2v2h-2zM800 34h2v2h-2zM792 36h2v2h-2zM800 36h2v2h-2zM806 24h6v2h-6zM804 26h2v2h-2zM812 26h2v2h-2zM804 28h2v2h-2zM812 28h2v2h-2zM804 30h10v2h-10zM804 32h2v2h-2zM812 32h2v2h-2zM804 34h2v2h-2zM812 34h2v2h-2zM804 36h2v2h-2zM812 36h2v2h-2zM818 24h8v2h-8zM816 26h2v2h-2zM816 28h2v2h-2zM818 30h6v2h-6zM824 32h2v2h-2zM824 34h2v2h-2zM816 36h8v2h-8zM842 24h6v2h-6zM840 26h2v2h-2zM848 26h2v2h-2zM840 28h2v2h-2zM840 30h2v2h-2zM844 30h6v2h-6zM840 32h2v2h-2zM848 32h2v2h-2zM840 34h2v2h-2zM848 34h2v2h-2zM842 36h8v2h-8zM852 24h10v2h-10zM852 26h2v2h-2zM852 28h2v2h-2zM852 30h8v2h-8zM852 32h2v2h-2zM852 34h2v2h-2zM852 36h10v2h-10zM864 24h8v2h-8zM864 26h2v2h-2zM872 26h2v2h-2zM864 28h2v2h-2zM872 28h2v2h-2zM864 30h8v2h-8zM864 32h2v2h-2zM868 32h2v2h-2zM864 34h2v2h-2zM870 34h2v2h-2zM864 36h2v2h-2zM872 36h2v2h-2zM878 24h6v2h-6zM876 26h2v2h-2zM884 26h2v2h-2zM876 28h2v2h-2zM884 28h2v2h-2zM876 30h10v2h-10zM876 32h2v2h-2zM884 32h2v2h-2zM876 34h2v2h-2zM884 34h2v2h-2zM876 36h2v2h-2zM884 36h2v2h-2zM890 24h6v2h-6zM892 26h2v2h-2zM892 28h2v2h-2zM892 30h2v2h-2zM892 32h2v2h-2zM892 34h2v2h-2zM890 36h6v2h-6zM902 24h8v2h-8zM900 26h2v2h-2zM900 28h2v2h-2zM902 30h6v2h-6zM908 32h2v2h-2zM908 34h2v2h-2zM900 36h8v2h-8zM928 30h2v2h-2zM948 24h8v2h-8zM948 26h2v2h-2zM956 26h2v2h-2zM948 28h2v2h-2zM956 28h2v2h-2zM948 30h8v2h-8zM948 32h2v2h-2zM956 32h2v2h-2zM948 34h2v2h-2zM956 34h2v2h-2zM948 36h8v2h-8zM960 24h8v2h-8zM960 26h2v2h-2zM968 26h2v2h-2zM960 28h2v2h-2zM968 28h2v2h-2zM960 30h8v2h-8zM960 32h2v2h-2zM964 32h2v2h-2zM960 34h2v2h-2zM966 34h2v2h-2zM960 36h2v2h-2zM968 36h2v2h-2z"/><path fill="#3b5dc9"  d="M259 85h7v7h-7zM287 85h7v7h-7zM259 92h7v7h-7zM287 92h7v7h-7zM266 99h7v7h-7zM280 99h7v7h-7zM273 106h7v7h-7zM273 113h7v7h-7zM273 120h7v7h-7zM273 127h7v7h-7zM308 85h21v7h-21zM301 92h7v7h-7zM329 92h7v7h-7zM301 99h7v7h-7zM301 106h7v7h-7zM315 106h21v7h-21zM301 113h7v7h-7zM329 113h7v7h-7zM301 120h7v7h-7zM329 120h7v7h-7zM308 127h28v7h-28zM350 85h21v7h-21zM343 92h7v7h-7zM371 92h7v7h-7zM343 99h7v7h-7zM371 99h7v7h-7zM343 106h7v7h-7zM371 106h7v7h-7zM343 113h7v7h-7zM371 113h7v7h-7zM343 120h7v7h-7zM371 120h7v7h-7zM350 127h21v7h-21zM385 85h28v7h-28zM385 92h7v7h-7zM413 92h7v7h-7zM385 99h7v7h-7zM413 99h7v7h-7zM385 106h28v7h-28zM385 113h7v7h-7zM399 113h7v7h-7zM385 120h7v7h-7zM406 120h7v7h-7zM385 127h7v7h-7zM413 127h7v7h-7zM469 85h7v7h-7zM497 85h7v7h-7zM469 92h14v7h-14zM490 92h14v7h-14zM469 99h7v7h-7zM483 99h7v7h-7zM497 99h7v7h-7zM469 106h7v7h-7zM483 106h7v7h-7zM497 106h7v7h-7zM469 113h7v7h-7zM497 113h7v7h-7zM469 120h7v7h-7zM497 120h7v7h-7zM469 127h7v7h-7zM497 127h7v7h-7zM518 85h21v7h-21zM511 92h7v7h-7zM539 92h7v7h-7zM511 99h7v7h-7zM539 99h7v7h-7zM511 106h35v7h-35zM511 113h7v7h-7zM539 113h7v7h-7zM511 120h7v7h-7zM539 120h7v7h-7zM511 127h7v7h-7zM539 127h7v7h-7zM553 85h28v7h-28zM553 92h7v7h-7zM581 92h7v7h-7zM553 99h7v7h-7zM581 99h7v7h-7zM553 106h28v7h-28zM553 113h7v7h-7zM567 113h7v7h-7zM553 120h7v7h-7zM574 120h7v7h-7zM553 127h7v7h-7zM581 127h7v7h-7zM602 85h21v7h-21zM595 92h7v7h-7zM623 92h7v7h-7zM595 99h7v7h-7zM623 99h7v7h-7zM595 106h7v7h-7zM623 106h7v7h-7zM595 113h7v7h-7zM609 113h7v7h-7zM623 113h7v7h-7zM595 120h7v7h-7zM616 120h7v7h-7zM602 127h14v7h-14zM623 127h7v7h-7zM637 85h7v7h-7zM665 85h7v7h-7zM637 92h7v7h-7zM665 92h7v7h-7zM637 99h7v7h-7zM665 99h7v7h-7zM637 106h7v7h-7zM665 106h7v7h-7zM637 113h7v7h-7zM665 113h7v7h-7zM637 120h7v7h-7zM665 120h7v7h-7zM644 127h21v7h-21zM679 85h35v7h-35zM679 92h7v7h-7zM679 99h7v7h-7zM679 106h28v7h-28zM679 113h7v7h-7zM679 120h7v7h-7zM679 127h35v7h-35zM728 85h28v7h-28zM721 92h7v7h-7zM721 99h7v7h-7zM728 106h21v7h-21zM749 113h7v7h-7zM749 120h7v7h-7zM721 127h28v7h-28z"/><path fill="#f4f4f4"  d="M252 78h7v7h-7zM280 78h7v7h-7zM252 85h7v7h-7zM280 85h7v7h-7zM259 92h7v7h-7zM273 92h7v7h-7zM266 99h7v7h-7zM266 106h7v7h-7zM266 113h7v7h-7zM266 120h7v7h-7zM301 78h21v7h-21zM294 85h7v7h-7zM322 85h7v7h-7zM294 92h7v7h-7zM294 99h7v7h-7zM308 99h21v7h-21zM294 106h7v7h-7zM322 106h7v7h-7zM294 113h7v7h-7zM322 113h7v7h-7zM301 120h28v7h-28zM343 78h21v7h-21zM336 85h7v7h-7zM364 85h7v7h-7zM336 92h7v7h-7zM364 92h7v7h-7zM336 99h7v7h-7zM364 99h7v7h-7zM336 106h7v7h-7zM364 106h7v7h-7zM336 113h7v7h-7zM364 113h7v7h-7zM343 120h21v7h-21zM378 78h28v7h-28zM378 85h7v7h-7zM406 85h7v7h-7zM378 92h7v7h-7zM406 92h7v7h-7zM378 99h28v7h-28zM378 106h7v7h-7zM392 106h7v7h-7zM378 113h7v7h-7zM399 113h7v7h-7zM378 120h7v7h-7zM406 120h7v7h-7zM462 78h7v7h-7zM490 78h7v7h-7zM462 85h14v7h-14zM483 85h14v7h-14zM462 92h7v7h-7zM476 92h7v7h-7zM490 92h7v7h-7zM462 99h7v7h-7zM476 99h7v7h-7zM490 99h7v7h-7zM462 106h7v7h-7zM490 106h7v7h-7zM462 113h7v7h-7zM490 113h7v7h-7zM462 120h7v7h-7zM490 120h7v7h-7zM511 78h21v7h-21zM504 85h7v7h-7zM532 85h7v7h-7zM504 92h7v7h-7zM532 92h7v7h-7zM504 99h35v7h-35zM504 106h7v7h-7zM532 106h7v7h-7zM504 113h7v7h-7zM532 113h7v7h-7zM504 120h7v7h-7zM532 120h7v7h-7zM546 78h28v7h-28zM546 85h7v7h-7zM574 85h7v7h-7zM546 92h7v7h-7zM574 92h7v7h-7zM546 99h28v7h-28zM546 106h7v7h-7zM560 106h7v7h-7zM546 113h7v7h-7zM567 113h7v7h-7zM546 120h7v7h-7zM574 120h7v7h-7zM595 78h21v7h-21zM588 85h7v7h-7zM616 85h7v7h-7zM588 92h7v7h-7zM616 92h7v7h-7zM588 99h7v7h-7zM616 99h7v7h-7zM588 106h7v7h-7zM602 106h7v7h-7zM616 106h7v7h-7zM588 113h7v7h-7zM609 113h7v7h-7zM595 120h14v7h-14zM616 120h7v7h-7zM630 78h7v7h-7zM658 78h7v7h-7zM630 85h7v7h-7zM658 85h7v7h-7zM630 92h7v7h-7zM658 92h7v7h-7zM630 99h7v7h-7zM658 99h7v7h-7zM630 106h7v7h-7zM658 106h7v7h-7zM630 113h7v7h-7zM658 113h7v7h-7zM637 120h21v7h-21zM672 78h35v7h-35zM672 85h7v7h-7zM672 92h7v7h-7zM672 99h28v7h-28zM672 106h7v7h-7zM672 113h7v7h-7zM672 120h35v7h-35zM721 78h28v7h-28zM714 85h7v7h-7zM714 92h7v7h-7zM721 99h21v7h-21zM742 106h7v7h-7zM742 113h7v7h-7zM714 120h28v7h-28z"/><rect x="440" y="148" width="120" height="4" fill="#2ce8f5"/><path fill="#2ce8f5"  d="M311 168h6v2h-6zM313 170h2v2h-2zM313 172h2v2h-2zM313 174h2v2h-2zM313 176h2v2h-2zM313 178h2v2h-2zM311 180h6v2h-6zM321 168h2v2h-2zM329 168h2v2h-2zM321 170h4v2h-4zM327 170h4v2h-4zM321 172h2v2h-2zM325 172h2v2h-2zM329 172h2v2h-2zM321 174h2v2h-2zM325 174h2v2h-2zM329 174h2v2h-2zM321 176h2v2h-2zM329 176h2v2h-2zM321 178h2v2h-2zM329 178h2v2h-2zM321 180h2v2h-2zM329 180h2v2h-2zM333 168h8v2h-8zM333 170h2v2h-2zM341 170h2v2h-2zM333 172h2v2h-2zM341 172h2v2h-2zM333 174h8v2h-8zM333 176h2v2h-2zM333 178h2v2h-2zM333 180h2v2h-2zM345 168h2v2h-2zM345 170h2v2h-2zM345 172h2v2h-2zM345 174h2v2h-2zM345 176h2v2h-2zM345 178h2v2h-2zM345 180h10v2h-10zM357 168h10v2h-10zM357 170h2v2h-2zM357 172h2v2h-2zM357 174h8v2h-8zM357 176h2v2h-2zM357 178h2v2h-2zM357 180h10v2h-10zM369 168h2v2h-2zM377 168h2v2h-2zM369 170h4v2h-4zM375 170h4v2h-4zM369 172h2v2h-2zM373 172h2v2h-2zM377 172h2v2h-2zM369 174h2v2h-2zM373 174h2v2h-2zM377 174h2v2h-2zM369 176h2v2h-2zM377 176h2v2h-2zM369 178h2v2h-2zM377 178h2v2h-2zM369 180h2v2h-2zM377 180h2v2h-2zM381 168h10v2h-10zM381 170h2v2h-2zM381 172h2v2h-2zM381 174h8v2h-8zM381 176h2v2h-2zM381 178h2v2h-2zM381 180h10v2h-10zM393 168h2v2h-2zM401 168h2v2h-2zM393 170h2v2h-2zM401 170h2v2h-2zM393 172h4v2h-4zM401 172h2v2h-2zM393 174h2v2h-2zM397 174h2v2h-2zM401 174h2v2h-2zM393 176h2v2h-2zM399 176h4v2h-4zM393 178h2v2h-2zM401 178h2v2h-2zM393 180h2v2h-2zM401 180h2v2h-2zM405 168h10v2h-10zM409 170h2v2h-2zM409 172h2v2h-2zM409 174h2v2h-2zM409 176h2v2h-2zM409 178h2v2h-2zM409 180h2v2h-2zM419 168h6v2h-6zM417 170h2v2h-2zM425 170h2v2h-2zM417 172h2v2h-2zM425 172h2v2h-2zM417 174h10v2h-10zM417 176h2v2h-2zM425 176h2v2h-2zM417 178h2v2h-2zM425 178h2v2h-2zM417 180h2v2h-2zM425 180h2v2h-2zM431 168h6v2h-6zM429 170h2v2h-2zM437 170h2v2h-2zM429 172h2v2h-2zM429 174h2v2h-2zM429 176h2v2h-2zM429 178h2v2h-2zM437 178h2v2h-2zM431 180h6v2h-6zM443 168h6v2h-6zM441 170h2v2h-2zM449 170h2v2h-2zM441 172h2v2h-2zM449 172h2v2h-2zM441 174h10v2h-10zM441 176h2v2h-2zM449 176h2v2h-2zM441 178h2v2h-2zM449 178h2v2h-2zM441 180h2v2h-2zM449 180h2v2h-2zM455 168h6v2h-6zM453 170h2v2h-2zM461 170h2v2h-2zM453 172h2v2h-2zM461 172h2v2h-2zM453 174h2v2h-2zM461 174h2v2h-2zM453 176h2v2h-2zM461 176h2v2h-2zM453 178h2v2h-2zM461 178h2v2h-2zM455 180h6v2h-6zM479 168h4v2h-4zM477 170h2v2h-2zM483 170h2v2h-2zM477 172h2v2h-2zM481 172h2v2h-2zM479 174h2v2h-2zM477 176h2v2h-2zM481 176h2v2h-2zM485 176h2v2h-2zM477 178h2v2h-2zM483 178h2v2h-2zM479 180h4v2h-4zM485 180h2v2h-2zM503 168h6v2h-6zM501 170h2v2h-2zM509 170h2v2h-2zM501 172h2v2h-2zM509 172h2v2h-2zM501 174h10v2h-10zM501 176h2v2h-2zM509 176h2v2h-2zM501 178h2v2h-2zM509 178h2v2h-2zM501 180h2v2h-2zM509 180h2v2h-2zM513 168h2v2h-2zM521 168h2v2h-2zM513 170h2v2h-2zM521 170h2v2h-2zM513 172h2v2h-2zM521 172h2v2h-2zM513 174h2v2h-2zM521 174h2v2h-2zM513 176h2v2h-2zM521 176h2v2h-2zM513 178h2v2h-2zM521 178h2v2h-2zM515 180h6v2h-6zM525 168h10v2h-10zM529 170h2v2h-2zM529 172h2v2h-2zM529 174h2v2h-2zM529 176h2v2h-2zM529 178h2v2h-2zM529 180h2v2h-2zM539 168h6v2h-6zM537 170h2v2h-2zM545 170h2v2h-2zM537 172h2v2h-2zM545 172h2v2h-2zM537 174h2v2h-2zM545 174h2v2h-2zM537 176h2v2h-2zM545 176h2v2h-2zM537 178h2v2h-2zM545 178h2v2h-2zM539 180h6v2h-6zM549 168h2v2h-2zM557 168h2v2h-2zM549 170h4v2h-4zM555 170h4v2h-4zM549 172h2v2h-2zM553 172h2v2h-2zM557 172h2v2h-2zM549 174h2v2h-2zM553 174h2v2h-2zM557 174h2v2h-2zM549 176h2v2h-2zM557 176h2v2h-2zM549 178h2v2h-2zM557 178h2v2h-2zM549 180h2v2h-2zM557 180h2v2h-2zM563 168h6v2h-6zM561 170h2v2h-2zM569 170h2v2h-2zM561 172h2v2h-2zM569 172h2v2h-2zM561 174h10v2h-10zM561 176h2v2h-2zM569 176h2v2h-2zM561 178h2v2h-2zM569 178h2v2h-2zM561 180h2v2h-2zM569 180h2v2h-2zM575 168h6v2h-6zM573 170h2v2h-2zM581 170h2v2h-2zM573 172h2v2h-2zM573 174h2v2h-2zM573 176h2v2h-2zM573 178h2v2h-2zM581 178h2v2h-2zM575 180h6v2h-6zM587 168h6v2h-6zM585 170h2v2h-2zM593 170h2v2h-2zM585 172h2v2h-2zM593 172h2v2h-2zM585 174h10v2h-10zM585 176h2v2h-2zM593 176h2v2h-2zM585 178h2v2h-2zM593 178h2v2h-2zM585 180h2v2h-2zM593 180h2v2h-2zM599 168h6v2h-6zM597 170h2v2h-2zM605 170h2v2h-2zM597 172h2v2h-2zM605 172h2v2h-2zM597 174h2v2h-2zM605 174h2v2h-2zM597 176h2v2h-2zM605 176h2v2h-2zM597 178h2v2h-2zM605 178h2v2h-2zM599 180h6v2h-6zM621 168h8v2h-8zM621 170h2v2h-2zM629 170h2v2h-2zM621 172h2v2h-2zM629 172h2v2h-2zM621 174h2v2h-2zM629 174h2v2h-2zM621 176h2v2h-2zM629 176h2v2h-2zM621 178h2v2h-2zM629 178h2v2h-2zM621 180h8v2h-8zM633 168h10v2h-10zM633 170h2v2h-2zM633 172h2v2h-2zM633 174h8v2h-8zM633 176h2v2h-2zM633 178h2v2h-2zM633 180h10v2h-10zM659 168h6v2h-6zM657 170h2v2h-2zM665 170h2v2h-2zM657 172h2v2h-2zM657 174h2v2h-2zM657 176h2v2h-2zM657 178h2v2h-2zM665 178h2v2h-2zM659 180h6v2h-6zM669 168h8v2h-8zM669 170h2v2h-2zM677 170h2v2h-2zM669 172h2v2h-2zM677 172h2v2h-2zM669 174h8v2h-8zM669 176h2v2h-2zM673 176h2v2h-2zM669 178h2v2h-2zM675 178h2v2h-2zM669 180h2v2h-2zM677 180h2v2h-2zM681 168h2v2h-2zM689 168h2v2h-2zM681 170h4v2h-4zM687 170h4v2h-4zM681 172h2v2h-2zM685 172h2v2h-2zM689 172h2v2h-2zM681 174h2v2h-2zM685 174h2v2h-2zM689 174h2v2h-2zM681 176h2v2h-2zM689 176h2v2h-2zM681 178h2v2h-2zM689 178h2v2h-2zM681 180h2v2h-2zM689 180h2v2h-2z"/><path fill="#8b9bb4"  d="M257 194h6v2h-6zM255 196h2v2h-2zM263 196h2v2h-2zM255 198h2v2h-2zM255 200h2v2h-2zM259 200h6v2h-6zM255 202h2v2h-2zM263 202h2v2h-2zM255 204h2v2h-2zM263 204h2v2h-2zM257 206h8v2h-8zM269 194h6v2h-6zM267 196h2v2h-2zM275 196h2v2h-2zM267 198h2v2h-2zM275 198h2v2h-2zM267 200h2v2h-2zM275 200h2v2h-2zM267 202h2v2h-2zM275 202h2v2h-2zM267 204h2v2h-2zM275 204h2v2h-2zM269 206h6v2h-6zM279 194h2v2h-2zM287 194h2v2h-2zM279 196h2v2h-2zM287 196h2v2h-2zM279 198h2v2h-2zM287 198h2v2h-2zM279 200h10v2h-10zM279 202h2v2h-2zM287 202h2v2h-2zM279 204h2v2h-2zM287 204h2v2h-2zM279 206h2v2h-2zM287 206h2v2h-2zM293 194h6v2h-6zM295 196h2v2h-2zM295 198h2v2h-2zM295 200h2v2h-2zM295 202h2v2h-2zM295 204h2v2h-2zM293 206h6v2h-6zM305 194h6v2h-6zM303 196h2v2h-2zM311 196h2v2h-2zM303 198h2v2h-2zM303 200h2v2h-2zM307 200h6v2h-6zM303 202h2v2h-2zM311 202h2v2h-2zM303 204h2v2h-2zM311 204h2v2h-2zM305 206h8v2h-8zM315 194h2v2h-2zM323 194h2v2h-2zM315 196h2v2h-2zM323 196h2v2h-2zM315 198h2v2h-2zM323 198h2v2h-2zM315 200h10v2h-10zM315 202h2v2h-2zM323 202h2v2h-2zM315 204h2v2h-2zM323 204h2v2h-2zM315 206h2v2h-2zM323 206h2v2h-2zM327 194h2v2h-2zM327 196h2v2h-2zM327 198h2v2h-2zM327 200h2v2h-2zM327 202h2v2h-2zM327 204h2v2h-2zM327 206h10v2h-10zM339 194h10v2h-10zM339 196h2v2h-2zM339 198h2v2h-2zM339 200h8v2h-8zM339 202h2v2h-2zM339 204h2v2h-2zM339 206h10v2h-10zM351 194h2v2h-2zM359 194h2v2h-2zM351 196h2v2h-2zM359 196h2v2h-2zM351 198h2v2h-2zM359 198h2v2h-2zM351 200h2v2h-2zM359 200h2v2h-2zM351 202h2v2h-2zM359 202h2v2h-2zM353 204h2v2h-2zM357 204h2v2h-2zM355 206h2v2h-2zM363 194h10v2h-10zM363 196h2v2h-2zM363 198h2v2h-2zM363 200h8v2h-8zM363 202h2v2h-2zM363 204h2v2h-2zM363 206h10v2h-10zM375 194h2v2h-2zM375 196h2v2h-2zM375 198h2v2h-2zM375 200h2v2h-2zM375 202h2v2h-2zM375 204h2v2h-2zM375 206h10v2h-10zM403 200h2v2h-2zM425 194h6v2h-6zM423 196h2v2h-2zM431 196h2v2h-2zM423 198h2v2h-2zM431 198h2v2h-2zM423 200h10v2h-10zM423 202h2v2h-2zM431 202h2v2h-2zM423 204h2v2h-2zM431 204h2v2h-2zM423 206h2v2h-2zM431 206h2v2h-2zM437 194h6v2h-6zM435 196h2v2h-2zM443 196h2v2h-2zM435 198h2v2h-2zM435 200h2v2h-2zM439 200h6v2h-6zM435 202h2v2h-2zM443 202h2v2h-2zM435 204h2v2h-2zM443 204h2v2h-2zM437 206h8v2h-8zM447 194h10v2h-10zM447 196h2v2h-2zM447 198h2v2h-2zM447 200h8v2h-8zM447 202h2v2h-2zM447 204h2v2h-2zM447 206h10v2h-10zM459 194h2v2h-2zM467 194h2v2h-2zM459 196h2v2h-2zM467 196h2v2h-2zM459 198h4v2h-4zM467 198h2v2h-2zM459 200h2v2h-2zM463 200h2v2h-2zM467 200h2v2h-2zM459 202h2v2h-2zM465 202h4v2h-4zM459 204h2v2h-2zM467 204h2v2h-2zM459 206h2v2h-2zM467 206h2v2h-2zM471 194h10v2h-10zM475 196h2v2h-2zM475 198h2v2h-2zM475 200h2v2h-2zM475 202h2v2h-2zM475 204h2v2h-2zM475 206h2v2h-2zM483 194h10v2h-10zM483 196h2v2h-2zM483 198h2v2h-2zM483 200h8v2h-8zM483 202h2v2h-2zM483 204h2v2h-2zM483 206h10v2h-10zM497 194h8v2h-8zM495 196h2v2h-2zM495 198h2v2h-2zM497 200h6v2h-6zM503 202h2v2h-2zM503 204h2v2h-2zM495 206h8v2h-8zM519 194h8v2h-8zM519 196h2v2h-2zM527 196h2v2h-2zM519 198h2v2h-2zM527 198h2v2h-2zM519 200h2v2h-2zM527 200h2v2h-2zM519 202h2v2h-2zM527 202h2v2h-2zM519 204h2v2h-2zM527 204h2v2h-2zM519 206h8v2h-8zM531 194h10v2h-10zM531 196h2v2h-2zM531 198h2v2h-2zM531 200h8v2h-8zM531 202h2v2h-2zM531 204h2v2h-2zM531 206h10v2h-10zM557 194h6v2h-6zM559 196h2v2h-2zM559 198h2v2h-2zM559 200h2v2h-2zM559 202h2v2h-2zM559 204h2v2h-2zM557 206h6v2h-6zM569 194h6v2h-6zM567 196h2v2h-2zM575 196h2v2h-2zM567 198h2v2h-2zM575 198h2v2h-2zM567 200h10v2h-10zM567 202h2v2h-2zM575 202h2v2h-2zM567 204h2v2h-2zM575 204h2v2h-2zM567 206h2v2h-2zM575 206h2v2h-2zM595 200h2v2h-2zM617 194h6v2h-6zM619 196h2v2h-2zM619 198h2v2h-2zM619 200h2v2h-2zM619 202h2v2h-2zM619 204h2v2h-2zM617 206h6v2h-6zM627 194h2v2h-2zM635 194h2v2h-2zM627 196h2v2h-2zM635 196h2v2h-2zM627 198h4v2h-4zM635 198h2v2h-2zM627 200h2v2h-2zM631 200h2v2h-2zM635 200h2v2h-2zM627 202h2v2h-2zM633 202h4v2h-4zM627 204h2v2h-2zM635 204h2v2h-2zM627 206h2v2h-2zM635 206h2v2h-2zM639 194h10v2h-10zM643 196h2v2h-2zM643 198h2v2h-2zM643 200h2v2h-2zM643 202h2v2h-2zM643 204h2v2h-2zM643 206h2v2h-2zM651 194h10v2h-10zM651 196h2v2h-2zM651 198h2v2h-2zM651 200h8v2h-8zM651 202h2v2h-2zM651 204h2v2h-2zM651 206h10v2h-10zM665 194h6v2h-6zM663 196h2v2h-2zM671 196h2v2h-2zM663 198h2v2h-2zM663 200h2v2h-2zM667 200h6v2h-6zM663 202h2v2h-2zM671 202h2v2h-2zM663 204h2v2h-2zM671 204h2v2h-2zM665 206h8v2h-8zM675 194h8v2h-8zM675 196h2v2h-2zM683 196h2v2h-2zM675 198h2v2h-2zM683 198h2v2h-2zM675 200h8v2h-8zM675 202h2v2h-2zM679 202h2v2h-2zM675 204h2v2h-2zM681 204h2v2h-2zM675 206h2v2h-2zM683 206h2v2h-2zM689 194h6v2h-6zM687 196h2v2h-2zM695 196h2v2h-2zM687 198h2v2h-2zM695 198h2v2h-2zM687 200h10v2h-10zM687 202h2v2h-2zM695 202h2v2h-2zM687 204h2v2h-2zM695 204h2v2h-2zM687 206h2v2h-2zM695 206h2v2h-2zM701 194h6v2h-6zM699 196h2v2h-2zM707 196h2v2h-2zM699 198h2v2h-2zM699 200h2v2h-2zM699 202h2v2h-2zM699 204h2v2h-2zM707 204h2v2h-2zM701 206h6v2h-6zM713 194h6v2h-6zM711 196h2v2h-2zM719 196h2v2h-2zM711 198h2v2h-2zM719 198h2v2h-2zM711 200h2v2h-2zM719 200h2v2h-2zM711 202h2v2h-2zM719 202h2v2h-2zM711 204h2v2h-2zM719 204h2v2h-2zM713 206h6v2h-6zM723 194h10v2h-10zM723 196h2v2h-2zM723 198h2v2h-2zM723 200h8v2h-8zM723 202h2v2h-2zM723 204h2v2h-2zM723 206h10v2h-10zM737 194h8v2h-8zM735 196h2v2h-2zM735 198h2v2h-2zM737 200h6v2h-6zM743 202h2v2h-2zM743 204h2v2h-2zM735 206h8v2h-8z"/><rect x="0" y="244" width="1000" height="36" fill="#151a33"/><rect x="0" y="244" width="1000" height="4" fill="#3b5dc9"/><rect x="0" y="248" width="1000" height="2" fill="#29366f"/><rect x="0" y="264" width="1000" height="2" fill="#0f1226"/><rect x="0" y="250" width="2" height="16" fill="#0f1226"/><rect x="32" y="250" width="2" height="16" fill="#0f1226"/><rect x="64" y="250" width="2" height="16" fill="#0f1226"/><rect x="96" y="250" width="2" height="16" fill="#0f1226"/><rect x="128" y="250" width="2" height="16" fill="#0f1226"/><rect x="160" y="250" width="2" height="16" fill="#0f1226"/><rect x="192" y="250" width="2" height="16" fill="#0f1226"/><rect x="224" y="250" width="2" height="16" fill="#0f1226"/><rect x="256" y="250" width="2" height="16" fill="#0f1226"/><rect x="288" y="250" width="2" height="16" fill="#0f1226"/><rect x="320" y="250" width="2" height="16" fill="#0f1226"/><rect x="352" y="250" width="2" height="16" fill="#0f1226"/><rect x="384" y="250" width="2" height="16" fill="#0f1226"/><rect x="416" y="250" width="2" height="16" fill="#0f1226"/><rect x="448" y="250" width="2" height="16" fill="#0f1226"/><rect x="480" y="250" width="2" height="16" fill="#0f1226"/><rect x="512" y="250" width="2" height="16" fill="#0f1226"/><rect x="544" y="250" width="2" height="16" fill="#0f1226"/><rect x="576" y="250" width="2" height="16" fill="#0f1226"/><rect x="608" y="250" width="2" height="16" fill="#0f1226"/><rect x="640" y="250" width="2" height="16" fill="#0f1226"/><rect x="672" y="250" width="2" height="16" fill="#0f1226"/><rect x="704" y="250" width="2" height="16" fill="#0f1226"/><rect x="736" y="250" width="2" height="16" fill="#0f1226"/><rect x="768" y="250" width="2" height="16" fill="#0f1226"/><rect x="800" y="250" width="2" height="16" fill="#0f1226"/><rect x="832" y="250" width="2" height="16" fill="#0f1226"/><rect x="864" y="250" width="2" height="16" fill="#0f1226"/><rect x="896" y="250" width="2" height="16" fill="#0f1226"/><rect x="928" y="250" width="2" height="16" fill="#0f1226"/><rect x="960" y="250" width="2" height="16" fill="#0f1226"/><rect x="992" y="250" width="2" height="16" fill="#0f1226"/><rect x="0" y="280" width="1000" height="2" fill="#0f1226"/><rect x="-16" y="266" width="2" height="16" fill="#0f1226"/><rect x="16" y="266" width="2" height="16" fill="#0f1226"/><rect x="48" y="266" width="2" height="16" fill="#0f1226"/><rect x="80" y="266" width="2" height="16" fill="#0f1226"/><rect x="112" y="266" width="2" height="16" fill="#0f1226"/><rect x="144" y="266" width="2" height="16" fill="#0f1226"/><rect x="176" y="266" width="2" height="16" fill="#0f1226"/><rect x="208" y="266" width="2" height="16" fill="#0f1226"/><rect x="240" y="266" width="2" height="16" fill="#0f1226"/><rect x="272" y="266" width="2" height="16" fill="#0f1226"/><rect x="304" y="266" width="2" height="16" fill="#0f1226"/><rect x="336" y="266" width="2" height="16" fill="#0f1226"/><rect x="368" y="266" width="2" height="16" fill="#0f1226"/><rect x="400" y="266" width="2" height="16" fill="#0f1226"/><rect x="432" y="266" width="2" height="16" fill="#0f1226"/><rect x="464" y="266" width="2" height="16" fill="#0f1226"/><rect x="496" y="266" width="2" height="16" fill="#0f1226"/><rect x="528" y="266" width="2" height="16" fill="#0f1226"/><rect x="560" y="266" width="2" height="16" fill="#0f1226"/><rect x="592" y="266" width="2" height="16" fill="#0f1226"/><rect x="624" y="266" width="2" height="16" fill="#0f1226"/><rect x="656" y="266" width="2" height="16" fill="#0f1226"/><rect x="688" y="266" width="2" height="16" fill="#0f1226"/><rect x="720" y="266" width="2" height="16" fill="#0f1226"/><rect x="752" y="266" width="2" height="16" fill="#0f1226"/><rect x="784" y="266" width="2" height="16" fill="#0f1226"/><rect x="816" y="266" width="2" height="16" fill="#0f1226"/><rect x="848" y="266" width="2" height="16" fill="#0f1226"/><rect x="880" y="266" width="2" height="16" fill="#0f1226"/><rect x="912" y="266" width="2" height="16" fill="#0f1226"/><rect x="944" y="266" width="2" height="16" fill="#0f1226"/><rect x="976" y="266" width="2" height="16" fill="#0f1226"/><g class="walk"><path fill="#e43b44" d="M24 208h6v3h-6zM21 211h9v3h-9zM33 220h3v3h-3z"/><path fill="#566c86" d="M21 214h3v3h-3zM30 214h3v3h-3zM18 217h3v3h-3zM18 220h3v3h-3zM30 220h3v3h-3zM0 223h3v3h-3zM18 223h3v3h-3zM30 223h3v3h-3zM0 226h6v3h-6zM15 226h3v3h-3zM30 226h3v3h-3zM0 229h3v3h-3zM6 229h3v3h-3zM12 229h3v3h-3zM33 229h3v3h-3zM3 232h3v3h-3zM9 232h3v3h-3zM30 232h3v3h-3zM6 235h3v3h-3zM27 235h3v3h-3z"/><path fill="#f4f4f4" d="M24 214h6v3h-6zM21 217h6v3h-6zM21 220h9v3h-9zM21 223h9v3h-9zM18 226h3v3h-3zM24 226h3v3h-3zM3 229h3v3h-3zM15 229h3v3h-3zM21 229h3v3h-3zM27 229h3v3h-3zM6 232h3v3h-3zM12 232h3v3h-3zM18 232h3v3h-3zM24 232h3v3h-3zM9 235h3v3h-3zM15 235h3v3h-3zM21 235h3v3h-3z"/><path fill="#1a1c2c" d="M27 217h3v3h-3zM30 217h3v3h-3zM21 226h3v3h-3zM27 226h3v3h-3zM18 229h3v3h-3zM24 229h3v3h-3zM30 229h3v3h-3zM15 232h3v3h-3zM21 232h3v3h-3zM27 232h3v3h-3zM12 235h3v3h-3zM18 235h3v3h-3zM24 235h3v3h-3z"/><path fill="#feae34" d="M33 217h6v3h-6zM12 238h3v3h-3zM21 238h3v3h-3zM9 241h6v3h-6zM21 241h6v3h-6z"/></g></svg>